<svg xmlns="http://www.w3.org/2000/svg" width="1500" height="120" viewBox="0 0 1500 120">
  <rect width="1500" height="120" fill="#EDE8E0"/>
  <defs>
    <linearGradient id="fade" x1="100%" y1="0%" x2="0%" y2="0%">
      <stop offset="0%" style="stop-color:#D4CCE4;stop-opacity:0.15"/>
      <stop offset="60%" style="stop-color:#EDE8E0;stop-opacity:0"/>
    </linearGradient>
  </defs>
  <rect width="1500" height="120" fill="url(#fade)"/>
  <circle cx="391.8" cy="6.4" r="1.0" fill="#9B84B0" opacity="0.31"/>
  <circle cx="409.8" cy="7.3" r="0.8" fill="#9B84B0" opacity="0.19"/>
  <circle cx="428.9" cy="4.0" r="0.8" fill="#9B84B0" opacity="0.21"/>
  <circle cx="448.3" cy="5.0" r="0.8" fill="#9B84B0" opacity="0.33"/>
  <circle cx="471.2" cy="7.7" r="0.8" fill="#9B84B0" opacity="0.48"/>
  <circle cx="528.1" cy="4.6" r="0.8" fill="#9B84B0" opacity="0.33"/>
  <circle cx="571.9" cy="4.7" r="0.8" fill="#9B84B0" opacity="0.32"/>
  <circle cx="611.9" cy="5.6" r="0.9" fill="#6B4E8A" opacity="0.36"/>
  <circle cx="632.3" cy="7.7" r="1.1" fill="#6B4E8A" opacity="0.34"/>
  <circle cx="711.9" cy="6.7" r="1.2" fill="#6B4E8A" opacity="0.50"/>
  <circle cx="732.8" cy="5.0" r="1.0" fill="#6B4E8A" opacity="0.47"/>
  <circle cx="792.3" cy="5.6" r="0.9" fill="#6B4E8A" opacity="0.32"/>
  <circle cx="852.3" cy="5.4" r="1.2" fill="#6B4E8A" opacity="0.44"/>
  <circle cx="890.8" cy="6.6" r="1.7" fill="#6B4E8A" opacity="0.62"/>
  <circle cx="912.2" cy="5.4" r="1.5" fill="#6B4E8A" opacity="0.50"/>
  <circle cx="931.0" cy="7.0" r="0.9" fill="#6B4E8A" opacity="0.56"/>
  <circle cx="948.2" cy="7.0" r="1.6" fill="#6B4E8A" opacity="0.50"/>
  <circle cx="1007.6" cy="5.2" r="1.5" fill="#6B4E8A" opacity="0.67"/>
  <circle cx="1029.2" cy="6.2" r="1.8" fill="#6B4E8A" opacity="0.51"/>
  <circle cx="1069.4" cy="4.7" r="1.8" fill="#3D2560" opacity="0.59"/>
  <circle cx="1109.5" cy="7.8" r="1.3" fill="#3D2560" opacity="0.59"/>
  <circle cx="1152.0" cy="7.7" r="1.9" fill="#3D2560" opacity="0.89"/>
  <circle cx="1167.4" cy="5.0" r="1.8" fill="#3D2560" opacity="0.54"/>
  <circle cx="1190.0" cy="5.3" r="1.8" fill="#3D2560" opacity="0.59"/>
  <circle cx="1209.5" cy="4.7" r="1.5" fill="#3D2560" opacity="0.40"/>
  <circle cx="1229.1" cy="4.9" r="2.0" fill="#3D2560" opacity="0.52"/>
  <circle cx="1251.8" cy="4.5" r="1.0" fill="#3D2560" opacity="0.47"/>
  <circle cx="1270.4" cy="4.8" r="2.0" fill="#3D2560" opacity="0.81"/>
  <circle cx="1291.1" cy="6.9" r="2.0" fill="#3D2560" opacity="0.49"/>
  <circle cx="1311.6" cy="6.6" r="1.0" fill="#3D2560" opacity="0.66"/>
  <circle cx="1330.7" cy="5.4" r="1.1" fill="#3D2560" opacity="0.63"/>
  <circle cx="1348.1" cy="4.7" r="1.0" fill="#3D2560" opacity="0.59"/>
  <circle cx="1369.3" cy="6.7" r="1.4" fill="#3D2560" opacity="0.92"/>
  <circle cx="1389.7" cy="7.2" r="2.5" fill="#3D2560" opacity="0.56"/>
  <circle cx="1411.6" cy="5.5" r="1.8" fill="#3D2560" opacity="0.62"/>
  <circle cx="1428.8" cy="4.6" r="2.1" fill="#3D2560" opacity="0.70"/>
  <circle cx="1449.6" cy="4.3" r="1.8" fill="#3D2560" opacity="0.84"/>
  <circle cx="1469.0" cy="5.3" r="2.4" fill="#3D2560" opacity="0.55"/>
  <circle cx="1491.2" cy="4.1" r="2.8" fill="#3D2560" opacity="0.72"/>
  <circle cx="172.9" cy="17.0" r="0.8" fill="#9B84B0" opacity="0.27"/>
  <circle cx="270.0" cy="16.9" r="0.8" fill="#9B84B0" opacity="0.24"/>
  <circle cx="331.4" cy="17.0" r="0.8" fill="#9B84B0" opacity="0.17"/>
  <circle cx="428.5" cy="19.1" r="0.8" fill="#9B84B0" opacity="0.10"/>
  <circle cx="468.1" cy="16.2" r="0.8" fill="#9B84B0" opacity="0.24"/>
  <circle cx="511.4" cy="16.5" r="0.8" fill="#9B84B0" opacity="0.22"/>
  <circle cx="528.6" cy="17.8" r="1.5" fill="#9B84B0" opacity="0.31"/>
  <circle cx="569.2" cy="17.3" r="1.0" fill="#9B84B0" opacity="0.44"/>
  <circle cx="588.3" cy="18.5" r="1.0" fill="#9B84B0" opacity="0.25"/>
  <circle cx="607.7" cy="17.7" r="0.9" fill="#6B4E8A" opacity="0.38"/>
  <circle cx="729.0" cy="16.4" r="1.6" fill="#6B4E8A" opacity="0.49"/>
  <circle cx="747.1" cy="19.0" r="0.8" fill="#6B4E8A" opacity="0.38"/>
  <circle cx="809.6" cy="19.7" r="1.3" fill="#6B4E8A" opacity="0.74"/>
  <circle cx="848.7" cy="19.1" r="0.8" fill="#6B4E8A" opacity="0.46"/>
  <circle cx="887.1" cy="18.3" r="1.5" fill="#6B4E8A" opacity="0.60"/>
  <circle cx="910.5" cy="16.1" r="1.8" fill="#6B4E8A" opacity="0.48"/>
  <circle cx="933.0" cy="16.1" r="1.7" fill="#6B4E8A" opacity="0.83"/>
  <circle cx="973.0" cy="18.8" r="1.2" fill="#6B4E8A" opacity="0.82"/>
  <circle cx="988.6" cy="18.1" r="1.1" fill="#6B4E8A" opacity="0.66"/>
  <circle cx="1008.6" cy="16.5" r="1.4" fill="#6B4E8A" opacity="0.52"/>
  <circle cx="1048.3" cy="20.0" r="2.1" fill="#3D2560" opacity="0.59"/>
  <circle cx="1087.9" cy="17.3" r="1.1" fill="#3D2560" opacity="0.62"/>
  <circle cx="1110.3" cy="19.1" r="1.4" fill="#3D2560" opacity="0.46"/>
  <circle cx="1147.5" cy="17.8" r="0.8" fill="#3D2560" opacity="0.41"/>
  <circle cx="1191.4" cy="18.8" r="1.2" fill="#3D2560" opacity="0.67"/>
  <circle cx="1207.5" cy="16.4" r="0.9" fill="#3D2560" opacity="0.66"/>
  <circle cx="1230.9" cy="17.0" r="1.7" fill="#3D2560" opacity="0.59"/>
  <circle cx="1247.3" cy="17.3" r="2.7" fill="#3D2560" opacity="0.92"/>
  <circle cx="1270.8" cy="18.4" r="2.5" fill="#3D2560" opacity="0.98"/>
  <circle cx="1290.3" cy="18.9" r="2.0" fill="#3D2560" opacity="0.61"/>
  <circle cx="1307.8" cy="16.2" r="2.2" fill="#3D2560" opacity="0.98"/>
  <circle cx="1332.0" cy="16.7" r="1.6" fill="#3D2560" opacity="0.90"/>
  <circle cx="1351.0" cy="17.4" r="1.3" fill="#3D2560" opacity="0.55"/>
  <circle cx="1367.6" cy="17.6" r="2.0" fill="#3D2560" opacity="0.61"/>
  <circle cx="1412.5" cy="19.9" r="1.8" fill="#3D2560" opacity="0.63"/>
  <circle cx="1428.9" cy="16.9" r="1.2" fill="#3D2560" opacity="0.73"/>
  <circle cx="1452.6" cy="17.6" r="1.0" fill="#3D2560" opacity="0.63"/>
  <circle cx="1471.0" cy="19.1" r="2.9" fill="#3D2560" opacity="0.82"/>
  <circle cx="1487.9" cy="17.6" r="2.2" fill="#3D2560" opacity="0.70"/>
  <circle cx="111.9" cy="28.3" r="0.8" fill="#9B84B0" opacity="0.26"/>
  <circle cx="268.3" cy="31.9" r="0.8" fill="#9B84B0" opacity="0.17"/>
  <circle cx="347.3" cy="28.1" r="0.8" fill="#9B84B0" opacity="0.08"/>
  <circle cx="389.1" cy="31.6" r="1.0" fill="#9B84B0" opacity="0.25"/>
  <circle cx="429.5" cy="30.7" r="0.8" fill="#9B84B0" opacity="0.34"/>
  <circle cx="488.0" cy="31.9" r="1.0" fill="#9B84B0" opacity="0.29"/>
  <circle cx="530.2" cy="28.9" r="0.8" fill="#9B84B0" opacity="0.37"/>
  <circle cx="567.9" cy="29.9" r="0.8" fill="#9B84B0" opacity="0.44"/>
  <circle cx="672.7" cy="28.8" r="0.8" fill="#6B4E8A" opacity="0.42"/>
  <circle cx="689.0" cy="28.9" r="0.9" fill="#6B4E8A" opacity="0.46"/>
  <circle cx="728.5" cy="29.6" r="1.4" fill="#6B4E8A" opacity="0.36"/>
  <circle cx="751.3" cy="28.3" r="1.8" fill="#6B4E8A" opacity="0.59"/>
  <circle cx="772.7" cy="30.6" r="1.9" fill="#6B4E8A" opacity="0.49"/>
  <circle cx="869.9" cy="29.8" r="1.1" fill="#6B4E8A" opacity="0.61"/>
  <circle cx="911.7" cy="29.9" r="1.8" fill="#6B4E8A" opacity="0.60"/>
  <circle cx="929.3" cy="31.6" r="1.0" fill="#6B4E8A" opacity="0.35"/>
  <circle cx="952.3" cy="28.5" r="1.9" fill="#6B4E8A" opacity="0.50"/>
  <circle cx="990.5" cy="28.8" r="1.8" fill="#6B4E8A" opacity="0.56"/>
  <circle cx="1050.6" cy="28.8" r="1.5" fill="#3D2560" opacity="0.43"/>
  <circle cx="1069.9" cy="31.3" r="1.2" fill="#3D2560" opacity="0.66"/>
  <circle cx="1088.0" cy="31.8" r="2.0" fill="#3D2560" opacity="0.71"/>
  <circle cx="1112.2" cy="31.7" r="1.3" fill="#3D2560" opacity="0.71"/>
  <circle cx="1129.0" cy="29.2" r="1.7" fill="#3D2560" opacity="0.61"/>
  <circle cx="1147.2" cy="30.1" r="1.1" fill="#3D2560" opacity="0.53"/>
  <circle cx="1172.5" cy="30.8" r="2.9" fill="#3D2560" opacity="0.60"/>
  <circle cx="1189.2" cy="29.4" r="1.1" fill="#3D2560" opacity="0.49"/>
  <circle cx="1230.6" cy="28.9" r="0.9" fill="#3D2560" opacity="0.51"/>
  <circle cx="1251.7" cy="30.7" r="1.1" fill="#3D2560" opacity="0.60"/>
  <circle cx="1268.3" cy="29.0" r="2.3" fill="#3D2560" opacity="0.69"/>
  <circle cx="1287.0" cy="29.4" r="1.4" fill="#3D2560" opacity="0.64"/>
  <circle cx="1308.1" cy="31.5" r="1.7" fill="#3D2560" opacity="0.73"/>
  <circle cx="1332.9" cy="29.9" r="1.2" fill="#3D2560" opacity="0.67"/>
  <circle cx="1348.6" cy="29.3" r="1.5" fill="#3D2560" opacity="0.64"/>
  <circle cx="1371.8" cy="28.7" r="2.0" fill="#3D2560" opacity="0.76"/>
  <circle cx="1389.3" cy="28.6" r="2.2" fill="#3D2560" opacity="0.95"/>
  <circle cx="1410.1" cy="29.1" r="2.8" fill="#3D2560" opacity="0.91"/>
  <circle cx="1428.4" cy="31.0" r="1.9" fill="#3D2560" opacity="0.78"/>
  <circle cx="1448.2" cy="30.2" r="2.5" fill="#3D2560" opacity="0.67"/>
  <circle cx="1487.5" cy="28.1" r="1.3" fill="#3D2560" opacity="0.61"/>
  <circle cx="11.3" cy="43.7" r="0.8" fill="#9B84B0" opacity="0.21"/>
  <circle cx="212.2" cy="41.7" r="0.8" fill="#9B84B0" opacity="0.18"/>
  <circle cx="272.5" cy="43.4" r="0.8" fill="#9B84B0" opacity="0.16"/>
  <circle cx="467.8" cy="43.5" r="0.8" fill="#9B84B0" opacity="0.24"/>
  <circle cx="588.2" cy="42.0" r="0.8" fill="#9B84B0" opacity="0.33"/>
  <circle cx="611.7" cy="41.4" r="0.8" fill="#6B4E8A" opacity="0.29"/>
  <circle cx="628.7" cy="40.9" r="0.8" fill="#6B4E8A" opacity="0.20"/>
  <circle cx="668.5" cy="43.8" r="1.2" fill="#6B4E8A" opacity="0.29"/>
  <circle cx="712.1" cy="40.1" r="1.4" fill="#6B4E8A" opacity="0.43"/>
  <circle cx="750.1" cy="42.3" r="0.8" fill="#6B4E8A" opacity="0.37"/>
  <circle cx="767.1" cy="42.0" r="1.2" fill="#6B4E8A" opacity="0.48"/>
  <circle cx="810.5" cy="42.1" r="1.3" fill="#6B4E8A" opacity="0.37"/>
  <circle cx="829.2" cy="41.4" r="1.0" fill="#6B4E8A" opacity="0.60"/>
  <circle cx="847.7" cy="40.6" r="1.1" fill="#6B4E8A" opacity="0.46"/>
  <circle cx="950.5" cy="40.3" r="1.2" fill="#6B4E8A" opacity="0.62"/>
  <circle cx="987.6" cy="43.6" r="1.9" fill="#6B4E8A" opacity="0.63"/>
  <circle cx="1012.0" cy="43.7" r="1.1" fill="#6B4E8A" opacity="0.56"/>
  <circle cx="1031.4" cy="42.3" r="1.9" fill="#6B4E8A" opacity="0.56"/>
  <circle cx="1049.7" cy="43.0" r="1.1" fill="#3D2560" opacity="0.61"/>
  <circle cx="1067.5" cy="42.1" r="1.1" fill="#3D2560" opacity="0.58"/>
  <circle cx="1089.7" cy="43.5" r="1.8" fill="#3D2560" opacity="0.74"/>
  <circle cx="1127.1" cy="40.9" r="1.2" fill="#3D2560" opacity="0.61"/>
  <circle cx="1150.9" cy="43.6" r="2.0" fill="#3D2560" opacity="0.75"/>
  <circle cx="1170.4" cy="41.9" r="2.4" fill="#3D2560" opacity="0.72"/>
  <circle cx="1208.9" cy="41.3" r="1.6" fill="#3D2560" opacity="0.61"/>
  <circle cx="1229.3" cy="43.1" r="1.8" fill="#3D2560" opacity="0.67"/>
  <circle cx="1251.9" cy="43.9" r="1.8" fill="#3D2560" opacity="0.70"/>
  <circle cx="1269.8" cy="43.4" r="2.4" fill="#3D2560" opacity="0.74"/>
  <circle cx="1288.7" cy="42.5" r="1.4" fill="#3D2560" opacity="0.55"/>
  <circle cx="1311.4" cy="40.1" r="2.0" fill="#3D2560" opacity="0.55"/>
  <circle cx="1328.3" cy="42.9" r="2.1" fill="#3D2560" opacity="0.65"/>
  <circle cx="1352.4" cy="44.0" r="2.3" fill="#3D2560" opacity="0.48"/>
  <circle cx="1369.4" cy="43.3" r="1.5" fill="#3D2560" opacity="0.89"/>
  <circle cx="1389.1" cy="43.2" r="1.8" fill="#3D2560" opacity="0.81"/>
  <circle cx="1407.6" cy="42.0" r="2.3" fill="#3D2560" opacity="0.89"/>
  <circle cx="1427.8" cy="40.0" r="2.6" fill="#3D2560" opacity="0.65"/>
  <circle cx="1449.1" cy="41.7" r="2.7" fill="#3D2560" opacity="0.91"/>
  <circle cx="1471.6" cy="40.3" r="2.1" fill="#3D2560" opacity="0.63"/>
  <circle cx="67.5" cy="54.6" r="0.8" fill="#9B84B0" opacity="0.24"/>
  <circle cx="127.8" cy="55.9" r="0.8" fill="#9B84B0" opacity="0.14"/>
  <circle cx="312.3" cy="53.4" r="0.8" fill="#9B84B0" opacity="0.06"/>
  <circle cx="467.8" cy="52.2" r="0.8" fill="#9B84B0" opacity="0.39"/>
  <circle cx="491.3" cy="55.8" r="0.8" fill="#9B84B0" opacity="0.17"/>
  <circle cx="549.2" cy="54.1" r="1.0" fill="#9B84B0" opacity="0.26"/>
  <circle cx="607.5" cy="54.4" r="1.5" fill="#6B4E8A" opacity="0.61"/>
  <circle cx="729.3" cy="55.1" r="1.0" fill="#6B4E8A" opacity="0.46"/>
  <circle cx="850.1" cy="53.2" r="0.8" fill="#6B4E8A" opacity="0.28"/>
  <circle cx="867.6" cy="52.2" r="2.0" fill="#6B4E8A" opacity="0.58"/>
  <circle cx="908.1" cy="52.4" r="1.5" fill="#6B4E8A" opacity="0.57"/>
  <circle cx="931.1" cy="54.4" r="1.0" fill="#6B4E8A" opacity="0.48"/>
  <circle cx="948.4" cy="53.2" r="1.7" fill="#6B4E8A" opacity="0.60"/>
  <circle cx="967.7" cy="52.7" r="1.5" fill="#6B4E8A" opacity="0.44"/>
  <circle cx="987.0" cy="54.2" r="2.4" fill="#6B4E8A" opacity="0.69"/>
  <circle cx="1012.0" cy="55.1" r="0.8" fill="#6B4E8A" opacity="0.48"/>
  <circle cx="1028.2" cy="53.5" r="1.0" fill="#6B4E8A" opacity="0.56"/>
  <circle cx="1049.3" cy="55.5" r="1.1" fill="#3D2560" opacity="0.63"/>
  <circle cx="1070.7" cy="54.0" r="1.3" fill="#3D2560" opacity="0.39"/>
  <circle cx="1107.4" cy="52.7" r="1.6" fill="#3D2560" opacity="0.59"/>
  <circle cx="1130.5" cy="53.0" r="1.5" fill="#3D2560" opacity="0.45"/>
  <circle cx="1172.4" cy="54.2" r="0.8" fill="#3D2560" opacity="0.43"/>
  <circle cx="1187.0" cy="52.3" r="1.0" fill="#3D2560" opacity="0.62"/>
  <circle cx="1207.7" cy="54.5" r="1.8" fill="#3D2560" opacity="0.58"/>
  <circle cx="1232.0" cy="54.7" r="1.8" fill="#3D2560" opacity="0.41"/>
  <circle cx="1248.0" cy="53.6" r="1.1" fill="#3D2560" opacity="0.56"/>
  <circle cx="1270.8" cy="54.6" r="2.5" fill="#3D2560" opacity="0.95"/>
  <circle cx="1289.0" cy="54.7" r="1.7" fill="#3D2560" opacity="0.78"/>
  <circle cx="1329.7" cy="52.4" r="1.4" fill="#3D2560" opacity="0.68"/>
  <circle cx="1352.3" cy="55.6" r="2.6" fill="#3D2560" opacity="0.72"/>
  <circle cx="1368.0" cy="53.0" r="2.5" fill="#3D2560" opacity="0.91"/>
  <circle cx="1391.8" cy="55.7" r="2.0" fill="#3D2560" opacity="0.60"/>
  <circle cx="1407.1" cy="52.2" r="1.6" fill="#3D2560" opacity="0.60"/>
  <circle cx="1427.4" cy="52.5" r="2.2" fill="#3D2560" opacity="0.83"/>
  <circle cx="1448.7" cy="55.0" r="2.1" fill="#3D2560" opacity="0.61"/>
  <circle cx="1469.5" cy="54.8" r="1.2" fill="#3D2560" opacity="0.76"/>
  <circle cx="1488.1" cy="52.5" r="2.0" fill="#3D2560" opacity="0.77"/>
  <circle cx="188.9" cy="65.3" r="0.8" fill="#9B84B0" opacity="0.20"/>
  <circle cx="428.4" cy="65.0" r="1.1" fill="#9B84B0" opacity="0.28"/>
  <circle cx="471.9" cy="65.8" r="0.8" fill="#9B84B0" opacity="0.29"/>
  <circle cx="491.3" cy="66.1" r="0.8" fill="#9B84B0" opacity="0.25"/>
  <circle cx="509.7" cy="64.3" r="0.8" fill="#9B84B0" opacity="0.28"/>
  <circle cx="590.2" cy="64.5" r="0.8" fill="#9B84B0" opacity="0.24"/>
  <circle cx="611.2" cy="66.4" r="1.2" fill="#6B4E8A" opacity="0.33"/>
  <circle cx="630.1" cy="65.0" r="0.8" fill="#6B4E8A" opacity="0.36"/>
  <circle cx="727.4" cy="67.2" r="1.0" fill="#6B4E8A" opacity="0.51"/>
  <circle cx="792.9" cy="65.5" r="1.3" fill="#6B4E8A" opacity="0.50"/>
  <circle cx="828.3" cy="65.7" r="0.8" fill="#6B4E8A" opacity="0.49"/>
  <circle cx="868.2" cy="66.5" r="0.8" fill="#6B4E8A" opacity="0.38"/>
  <circle cx="909.1" cy="65.9" r="2.1" fill="#6B4E8A" opacity="0.55"/>
  <circle cx="967.7" cy="65.2" r="1.0" fill="#6B4E8A" opacity="0.34"/>
  <circle cx="1010.7" cy="65.8" r="0.9" fill="#6B4E8A" opacity="0.39"/>
  <circle cx="1032.2" cy="66.8" r="2.0" fill="#6B4E8A" opacity="0.43"/>
  <circle cx="1048.0" cy="65.0" r="1.3" fill="#3D2560" opacity="0.50"/>
  <circle cx="1087.3" cy="67.5" r="1.0" fill="#3D2560" opacity="0.47"/>
  <circle cx="1111.1" cy="67.1" r="1.9" fill="#3D2560" opacity="0.59"/>
  <circle cx="1132.7" cy="64.1" r="2.4" fill="#3D2560" opacity="0.84"/>
  <circle cx="1149.2" cy="66.8" r="2.0" fill="#3D2560" opacity="0.52"/>
  <circle cx="1167.7" cy="67.1" r="0.8" fill="#3D2560" opacity="0.41"/>
  <circle cx="1191.8" cy="67.9" r="2.2" fill="#3D2560" opacity="0.57"/>
  <circle cx="1207.9" cy="67.6" r="1.4" fill="#3D2560" opacity="0.57"/>
  <circle cx="1232.8" cy="67.4" r="1.9" fill="#3D2560" opacity="0.79"/>
  <circle cx="1251.9" cy="64.5" r="2.7" fill="#3D2560" opacity="0.82"/>
  <circle cx="1269.6" cy="66.9" r="1.5" fill="#3D2560" opacity="0.60"/>
  <circle cx="1310.1" cy="66.6" r="1.9" fill="#3D2560" opacity="0.72"/>
  <circle cx="1331.0" cy="64.0" r="1.6" fill="#3D2560" opacity="0.86"/>
  <circle cx="1352.6" cy="66.4" r="1.0" fill="#3D2560" opacity="0.51"/>
  <circle cx="1390.0" cy="65.0" r="2.4" fill="#3D2560" opacity="0.65"/>
  <circle cx="1408.5" cy="64.9" r="2.7" fill="#3D2560" opacity="0.68"/>
  <circle cx="1429.4" cy="67.9" r="1.0" fill="#3D2560" opacity="0.56"/>
  <circle cx="1450.3" cy="66.7" r="1.9" fill="#3D2560" opacity="0.63"/>
  <circle cx="1472.6" cy="67.5" r="2.5" fill="#3D2560" opacity="0.98"/>
  <circle cx="1487.9" cy="67.3" r="2.4" fill="#3D2560" opacity="0.69"/>
  <circle cx="369.5" cy="79.2" r="0.8" fill="#9B84B0" opacity="0.22"/>
  <circle cx="389.0" cy="76.2" r="0.8" fill="#9B84B0" opacity="0.13"/>
  <circle cx="449.3" cy="79.3" r="0.8" fill="#9B84B0" opacity="0.22"/>
  <circle cx="492.8" cy="77.1" r="1.1" fill="#9B84B0" opacity="0.33"/>
  <circle cx="547.9" cy="79.0" r="0.8" fill="#9B84B0" opacity="0.22"/>
  <circle cx="608.4" cy="79.0" r="1.3" fill="#6B4E8A" opacity="0.47"/>
  <circle cx="632.6" cy="77.0" r="0.8" fill="#6B4E8A" opacity="0.25"/>
  <circle cx="651.7" cy="79.8" r="1.2" fill="#6B4E8A" opacity="0.51"/>
  <circle cx="688.2" cy="76.4" r="0.8" fill="#6B4E8A" opacity="0.35"/>
  <circle cx="730.7" cy="76.2" r="1.5" fill="#6B4E8A" opacity="0.50"/>
  <circle cx="768.1" cy="79.2" r="0.9" fill="#6B4E8A" opacity="0.37"/>
  <circle cx="791.0" cy="78.5" r="1.0" fill="#6B4E8A" opacity="0.34"/>
  <circle cx="812.6" cy="78.2" r="0.9" fill="#6B4E8A" opacity="0.54"/>
  <circle cx="831.2" cy="79.0" r="0.8" fill="#6B4E8A" opacity="0.46"/>
  <circle cx="892.9" cy="76.3" r="0.9" fill="#6B4E8A" opacity="0.52"/>
  <circle cx="910.2" cy="77.1" r="1.7" fill="#6B4E8A" opacity="0.61"/>
  <circle cx="930.7" cy="77.8" r="2.0" fill="#6B4E8A" opacity="0.46"/>
  <circle cx="989.8" cy="78.3" r="1.7" fill="#6B4E8A" opacity="0.51"/>
  <circle cx="1032.8" cy="78.8" r="1.2" fill="#6B4E8A" opacity="0.45"/>
  <circle cx="1051.5" cy="76.5" r="0.8" fill="#3D2560" opacity="0.60"/>
  <circle cx="1089.2" cy="78.8" r="1.9" fill="#3D2560" opacity="0.63"/>
  <circle cx="1127.3" cy="77.6" r="1.1" fill="#3D2560" opacity="0.45"/>
  <circle cx="1152.0" cy="76.7" r="1.8" fill="#3D2560" opacity="0.54"/>
  <circle cx="1171.2" cy="76.4" r="1.2" fill="#3D2560" opacity="0.67"/>
  <circle cx="1211.9" cy="77.4" r="1.4" fill="#3D2560" opacity="0.51"/>
  <circle cx="1229.1" cy="77.5" r="1.6" fill="#3D2560" opacity="0.62"/>
  <circle cx="1270.7" cy="76.5" r="1.8" fill="#3D2560" opacity="0.92"/>
  <circle cx="1291.3" cy="78.6" r="2.1" fill="#3D2560" opacity="0.70"/>
  <circle cx="1309.0" cy="76.9" r="1.2" fill="#3D2560" opacity="0.44"/>
  <circle cx="1329.6" cy="76.2" r="2.7" fill="#3D2560" opacity="0.82"/>
  <circle cx="1349.6" cy="76.0" r="1.3" fill="#3D2560" opacity="0.74"/>
  <circle cx="1367.2" cy="78.7" r="1.4" fill="#3D2560" opacity="0.65"/>
  <circle cx="1387.0" cy="77.5" r="2.2" fill="#3D2560" opacity="0.60"/>
  <circle cx="1409.5" cy="77.3" r="2.4" fill="#3D2560" opacity="0.68"/>
  <circle cx="1432.4" cy="76.7" r="1.9" fill="#3D2560" opacity="0.79"/>
  <circle cx="1448.8" cy="76.7" r="2.8" fill="#3D2560" opacity="0.79"/>
  <circle cx="1490.8" cy="78.2" r="1.6" fill="#3D2560" opacity="0.64"/>
  <circle cx="148.7" cy="88.1" r="0.9" fill="#9B84B0" opacity="0.30"/>
  <circle cx="408.3" cy="90.6" r="0.9" fill="#9B84B0" opacity="0.30"/>
  <circle cx="467.3" cy="91.9" r="0.8" fill="#9B84B0" opacity="0.14"/>
  <circle cx="552.2" cy="90.9" r="0.8" fill="#9B84B0" opacity="0.37"/>
  <circle cx="611.1" cy="90.9" r="0.8" fill="#6B4E8A" opacity="0.33"/>
  <circle cx="669.4" cy="90.7" r="1.1" fill="#6B4E8A" opacity="0.32"/>
  <circle cx="727.2" cy="90.2" r="0.8" fill="#6B4E8A" opacity="0.22"/>
  <circle cx="752.7" cy="90.6" r="1.1" fill="#6B4E8A" opacity="0.65"/>
  <circle cx="809.4" cy="90.9" r="0.8" fill="#6B4E8A" opacity="0.26"/>
  <circle cx="827.1" cy="91.3" r="1.8" fill="#6B4E8A" opacity="0.77"/>
  <circle cx="948.9" cy="90.3" r="1.6" fill="#6B4E8A" opacity="0.78"/>
  <circle cx="970.2" cy="90.9" r="1.7" fill="#6B4E8A" opacity="0.47"/>
  <circle cx="987.3" cy="90.0" r="2.3" fill="#6B4E8A" opacity="0.81"/>
  <circle cx="1007.2" cy="90.3" r="1.3" fill="#6B4E8A" opacity="0.63"/>
  <circle cx="1052.1" cy="89.5" r="1.2" fill="#3D2560" opacity="0.46"/>
  <circle cx="1088.9" cy="89.1" r="2.4" fill="#3D2560" opacity="0.63"/>
  <circle cx="1108.0" cy="91.8" r="2.1" fill="#3D2560" opacity="0.60"/>
  <circle cx="1127.3" cy="89.6" r="1.3" fill="#3D2560" opacity="0.47"/>
  <circle cx="1148.6" cy="90.6" r="1.3" fill="#3D2560" opacity="0.59"/>
  <circle cx="1171.7" cy="90.3" r="1.3" fill="#3D2560" opacity="0.59"/>
  <circle cx="1190.0" cy="90.0" r="1.1" fill="#3D2560" opacity="0.60"/>
  <circle cx="1232.8" cy="89.6" r="1.5" fill="#3D2560" opacity="0.80"/>
  <circle cx="1270.4" cy="90.7" r="2.7" fill="#3D2560" opacity="0.76"/>
  <circle cx="1292.4" cy="90.7" r="2.2" fill="#3D2560" opacity="0.97"/>
  <circle cx="1311.7" cy="88.8" r="1.5" fill="#3D2560" opacity="0.72"/>
  <circle cx="1332.8" cy="88.3" r="2.4" fill="#3D2560" opacity="0.85"/>
  <circle cx="1369.3" cy="89.1" r="1.7" fill="#3D2560" opacity="0.92"/>
  <circle cx="1391.3" cy="90.2" r="1.5" fill="#3D2560" opacity="0.71"/>
  <circle cx="1409.5" cy="91.0" r="1.8" fill="#3D2560" opacity="0.77"/>
  <circle cx="1431.4" cy="88.8" r="2.4" fill="#3D2560" opacity="0.69"/>
  <circle cx="1448.4" cy="89.2" r="2.2" fill="#3D2560" opacity="0.55"/>
  <circle cx="1492.9" cy="89.5" r="1.5" fill="#3D2560" opacity="0.83"/>
  <circle cx="130.7" cy="100.5" r="0.8" fill="#9B84B0" opacity="0.22"/>
  <circle cx="212.6" cy="102.7" r="0.8" fill="#9B84B0" opacity="0.22"/>
  <circle cx="331.9" cy="103.1" r="0.8" fill="#9B84B0" opacity="0.12"/>
  <circle cx="427.8" cy="102.5" r="0.8" fill="#9B84B0" opacity="0.26"/>
  <circle cx="450.6" cy="102.4" r="0.8" fill="#9B84B0" opacity="0.17"/>
  <circle cx="552.0" cy="102.9" r="1.2" fill="#9B84B0" opacity="0.30"/>
  <circle cx="589.5" cy="102.0" r="0.8" fill="#9B84B0" opacity="0.22"/>
  <circle cx="652.2" cy="101.7" r="1.2" fill="#6B4E8A" opacity="0.41"/>
  <circle cx="689.2" cy="101.7" r="0.9" fill="#6B4E8A" opacity="0.59"/>
  <circle cx="710.6" cy="100.1" r="1.0" fill="#6B4E8A" opacity="0.26"/>
  <circle cx="727.3" cy="100.9" r="0.8" fill="#6B4E8A" opacity="0.26"/>
  <circle cx="828.6" cy="101.9" r="1.5" fill="#6B4E8A" opacity="0.40"/>
  <circle cx="851.8" cy="100.4" r="1.6" fill="#6B4E8A" opacity="0.53"/>
  <circle cx="868.6" cy="100.8" r="1.3" fill="#6B4E8A" opacity="0.50"/>
  <circle cx="887.2" cy="101.6" r="0.8" fill="#6B4E8A" opacity="0.42"/>
  <circle cx="909.3" cy="103.0" r="1.6" fill="#6B4E8A" opacity="0.74"/>
  <circle cx="929.9" cy="101.6" r="2.2" fill="#6B4E8A" opacity="0.51"/>
  <circle cx="972.9" cy="102.3" r="1.7" fill="#6B4E8A" opacity="0.49"/>
  <circle cx="1012.6" cy="102.3" r="2.1" fill="#6B4E8A" opacity="0.49"/>
  <circle cx="1028.5" cy="100.4" r="1.1" fill="#6B4E8A" opacity="0.54"/>
  <circle cx="1047.5" cy="102.7" r="1.5" fill="#3D2560" opacity="0.70"/>
  <circle cx="1071.5" cy="100.1" r="2.1" fill="#3D2560" opacity="0.65"/>
  <circle cx="1090.1" cy="102.6" r="1.0" fill="#3D2560" opacity="0.62"/>
  <circle cx="1112.0" cy="101.0" r="1.8" fill="#3D2560" opacity="0.65"/>
  <circle cx="1148.9" cy="100.2" r="0.9" fill="#3D2560" opacity="0.55"/>
  <circle cx="1210.2" cy="101.1" r="2.0" fill="#3D2560" opacity="0.59"/>
  <circle cx="1230.6" cy="100.7" r="1.4" fill="#3D2560" opacity="0.81"/>
  <circle cx="1250.4" cy="100.6" r="1.3" fill="#3D2560" opacity="0.50"/>
  <circle cx="1269.5" cy="102.3" r="1.7" fill="#3D2560" opacity="0.53"/>
  <circle cx="1292.7" cy="103.9" r="1.9" fill="#3D2560" opacity="0.80"/>
  <circle cx="1308.2" cy="100.6" r="2.0" fill="#3D2560" opacity="0.80"/>
  <circle cx="1332.4" cy="103.4" r="1.2" fill="#3D2560" opacity="0.67"/>
  <circle cx="1351.1" cy="102.2" r="1.4" fill="#3D2560" opacity="0.81"/>
  <circle cx="1388.0" cy="100.2" r="1.9" fill="#3D2560" opacity="0.73"/>
  <circle cx="1410.7" cy="104.0" r="1.6" fill="#3D2560" opacity="0.70"/>
  <circle cx="1430.6" cy="101.6" r="2.6" fill="#3D2560" opacity="0.55"/>
  <circle cx="1447.3" cy="102.2" r="2.1" fill="#3D2560" opacity="0.89"/>
  <circle cx="1468.5" cy="103.7" r="1.8" fill="#3D2560" opacity="0.67"/>
  <circle cx="1489.2" cy="102.3" r="1.6" fill="#3D2560" opacity="0.70"/>
  <circle cx="331.1" cy="112.7" r="0.8" fill="#9B84B0" opacity="0.44"/>
  <circle cx="471.2" cy="114.8" r="0.9" fill="#9B84B0" opacity="0.32"/>
  <circle cx="549.2" cy="112.7" r="0.9" fill="#9B84B0" opacity="0.33"/>
  <circle cx="630.2" cy="112.8" r="1.5" fill="#6B4E8A" opacity="0.50"/>
  <circle cx="672.6" cy="115.2" r="0.8" fill="#6B4E8A" opacity="0.25"/>
  <circle cx="691.0" cy="112.1" r="0.8" fill="#6B4E8A" opacity="0.15"/>
  <circle cx="728.6" cy="114.1" r="0.9" fill="#6B4E8A" opacity="0.44"/>
  <circle cx="771.4" cy="114.6" r="1.8" fill="#6B4E8A" opacity="0.76"/>
  <circle cx="792.1" cy="112.6" r="1.4" fill="#6B4E8A" opacity="0.65"/>
  <circle cx="809.2" cy="113.3" r="0.8" fill="#6B4E8A" opacity="0.40"/>
  <circle cx="890.0" cy="113.3" r="2.0" fill="#6B4E8A" opacity="0.67"/>
  <circle cx="908.9" cy="113.1" r="2.0" fill="#6B4E8A" opacity="0.54"/>
  <circle cx="951.5" cy="116.0" r="1.6" fill="#6B4E8A" opacity="0.62"/>
  <circle cx="1027.4" cy="112.1" r="1.2" fill="#6B4E8A" opacity="0.64"/>
  <circle cx="1048.7" cy="114.4" r="1.6" fill="#3D2560" opacity="0.62"/>
  <circle cx="1072.8" cy="112.1" r="1.7" fill="#3D2560" opacity="0.59"/>
  <circle cx="1109.0" cy="115.5" r="2.1" fill="#3D2560" opacity="0.82"/>
  <circle cx="1127.9" cy="114.1" r="1.5" fill="#3D2560" opacity="0.82"/>
  <circle cx="1170.3" cy="114.8" r="1.9" fill="#3D2560" opacity="0.42"/>
  <circle cx="1191.3" cy="112.1" r="1.8" fill="#3D2560" opacity="0.89"/>
  <circle cx="1231.2" cy="113.9" r="1.7" fill="#3D2560" opacity="0.57"/>
  <circle cx="1249.1" cy="114.0" r="1.2" fill="#3D2560" opacity="0.58"/>
  <circle cx="1271.8" cy="115.7" r="1.6" fill="#3D2560" opacity="0.59"/>
  <circle cx="1293.0" cy="113.9" r="2.2" fill="#3D2560" opacity="0.55"/>
  <circle cx="1311.3" cy="115.7" r="2.0" fill="#3D2560" opacity="0.79"/>
  <circle cx="1328.8" cy="114.2" r="2.0" fill="#3D2560" opacity="0.66"/>
  <circle cx="1352.3" cy="114.9" r="1.9" fill="#3D2560" opacity="0.52"/>
  <circle cx="1369.2" cy="114.2" r="2.2" fill="#3D2560" opacity="0.94"/>
  <circle cx="1392.5" cy="115.8" r="2.1" fill="#3D2560" opacity="0.56"/>
  <circle cx="1408.6" cy="114.8" r="2.3" fill="#3D2560" opacity="0.60"/>
  <circle cx="1431.6" cy="114.3" r="2.2" fill="#3D2560" opacity="0.70"/>
  <circle cx="1453.0" cy="114.4" r="1.9" fill="#3D2560" opacity="0.61"/>
  <circle cx="1470.0" cy="113.9" r="2.1" fill="#3D2560" opacity="0.69"/>
  <circle cx="1492.1" cy="114.6" r="1.5" fill="#3D2560" opacity="0.88"/>
</svg>