<svg xmlns="http://www.w3.org/2000/svg" width="1500" height="220" viewBox="0 0 1500 220">
  <rect width="1500" height="220" fill="#EDE8E0"/>
  <!-- Subtle warm gradient overlay -->
  <defs>
    <linearGradient id="fade" x1="0%" y1="0%" x2="100%" y2="0%">
      <stop offset="0%" style="stop-color:#D4CCE4;stop-opacity:0.15"/>
      <stop offset="60%" style="stop-color:#EDE8E0;stop-opacity:0"/>
    </linearGradient>
  </defs>
  <rect width="1500" height="220" fill="url(#fade)"/>
  <circle cx="8.3" cy="7.1" r="2.8" fill="#3D2560" opacity="0.94"/>
  <circle cx="29.5" cy="4.2" r="1.8" fill="#3D2560" opacity="0.77"/>
  <circle cx="50.3" cy="5.0" r="2.6" fill="#3D2560" opacity="0.92"/>
  <circle cx="71.8" cy="6.9" r="2.1" fill="#3D2560" opacity="0.64"/>
  <circle cx="87.6" cy="7.5" r="2.7" fill="#3D2560" opacity="0.92"/>
  <circle cx="110.2" cy="8.0" r="2.0" fill="#3D2560" opacity="0.74"/>
  <circle cx="130.5" cy="6.9" r="1.5" fill="#3D2560" opacity="0.69"/>
  <circle cx="147.5" cy="5.0" r="1.2" fill="#3D2560" opacity="0.54"/>
  <circle cx="168.3" cy="5.2" r="2.7" fill="#3D2560" opacity="0.70"/>
  <circle cx="188.0" cy="7.0" r="1.4" fill="#3D2560" opacity="0.60"/>
  <circle cx="211.1" cy="7.5" r="3.0" fill="#3D2560" opacity="0.69"/>
  <circle cx="228.9" cy="5.2" r="1.5" fill="#3D2560" opacity="0.82"/>
  <circle cx="249.4" cy="7.8" r="2.2" fill="#3D2560" opacity="0.64"/>
  <circle cx="270.4" cy="5.2" r="2.0" fill="#3D2560" opacity="0.72"/>
  <circle cx="307.5" cy="4.3" r="1.4" fill="#3D2560" opacity="0.72"/>
  <circle cx="329.3" cy="8.1" r="2.1" fill="#3D2560" opacity="0.81"/>
  <circle cx="370.2" cy="5.2" r="2.6" fill="#3D2560" opacity="0.61"/>
  <circle cx="389.7" cy="7.9" r="2.5" fill="#3D2560" opacity="0.53"/>
  <circle cx="447.9" cy="7.2" r="1.6" fill="#3D2560" opacity="0.59"/>
  <circle cx="467.0" cy="5.4" r="1.2" fill="#6B4E8A" opacity="0.83"/>
  <circle cx="487.3" cy="7.6" r="2.8" fill="#6B4E8A" opacity="0.53"/>
  <circle cx="507.4" cy="7.2" r="1.5" fill="#6B4E8A" opacity="0.33"/>
  <circle cx="532.2" cy="5.8" r="0.9" fill="#6B4E8A" opacity="0.41"/>
  <circle cx="589.6" cy="6.2" r="1.2" fill="#6B4E8A" opacity="0.49"/>
  <circle cx="608.3" cy="4.4" r="1.4" fill="#6B4E8A" opacity="0.35"/>
  <circle cx="651.0" cy="5.0" r="1.0" fill="#6B4E8A" opacity="0.58"/>
  <circle cx="707.6" cy="5.8" r="1.3" fill="#6B4E8A" opacity="0.44"/>
  <circle cx="749.4" cy="5.5" r="1.0" fill="#6B4E8A" opacity="0.23"/>
  <circle cx="768.7" cy="5.1" r="1.8" fill="#6B4E8A" opacity="0.42"/>
  <circle cx="869.9" cy="5.0" r="0.8" fill="#6B4E8A" opacity="0.23"/>
  <circle cx="968.8" cy="8.0" r="0.8" fill="#9B84B0" opacity="0.14"/>
  <circle cx="1048.1" cy="6.5" r="1.3" fill="#9B84B0" opacity="0.32"/>
  <circle cx="1072.3" cy="5.1" r="1.4" fill="#9B84B0" opacity="0.46"/>
  <circle cx="1129.4" cy="6.8" r="0.8" fill="#9B84B0" opacity="0.22"/>
  <circle cx="9.5" cy="17.4" r="1.4" fill="#3D2560" opacity="0.91"/>
  <circle cx="30.3" cy="18.0" r="1.3" fill="#3D2560" opacity="0.58"/>
  <circle cx="52.4" cy="18.5" r="2.8" fill="#3D2560" opacity="0.75"/>
  <circle cx="72.4" cy="19.5" r="3.2" fill="#3D2560" opacity="0.96"/>
  <circle cx="88.5" cy="16.7" r="3.0" fill="#3D2560" opacity="0.95"/>
  <circle cx="112.6" cy="19.8" r="2.7" fill="#3D2560" opacity="0.73"/>
  <circle cx="127.1" cy="19.3" r="2.1" fill="#3D2560" opacity="0.97"/>
  <circle cx="148.6" cy="19.5" r="1.6" fill="#3D2560" opacity="0.93"/>
  <circle cx="188.8" cy="19.5" r="1.7" fill="#3D2560" opacity="0.56"/>
  <circle cx="209.0" cy="19.8" r="3.4" fill="#3D2560" opacity="0.71"/>
  <circle cx="252.6" cy="16.8" r="2.6" fill="#3D2560" opacity="0.50"/>
  <circle cx="269.6" cy="19.2" r="1.9" fill="#3D2560" opacity="0.77"/>
  <circle cx="289.3" cy="18.6" r="1.5" fill="#3D2560" opacity="0.70"/>
  <circle cx="311.3" cy="19.3" r="2.8" fill="#3D2560" opacity="0.75"/>
  <circle cx="331.0" cy="17.7" r="1.6" fill="#3D2560" opacity="0.74"/>
  <circle cx="349.5" cy="17.9" r="1.5" fill="#3D2560" opacity="0.49"/>
  <circle cx="372.6" cy="19.0" r="2.2" fill="#3D2560" opacity="0.56"/>
  <circle cx="388.7" cy="18.1" r="1.8" fill="#3D2560" opacity="0.60"/>
  <circle cx="409.7" cy="17.2" r="2.1" fill="#3D2560" opacity="0.84"/>
  <circle cx="430.1" cy="18.9" r="1.6" fill="#3D2560" opacity="0.68"/>
  <circle cx="467.1" cy="17.3" r="1.6" fill="#6B4E8A" opacity="0.61"/>
  <circle cx="489.5" cy="18.9" r="1.1" fill="#6B4E8A" opacity="0.53"/>
  <circle cx="531.5" cy="19.4" r="1.1" fill="#6B4E8A" opacity="0.50"/>
  <circle cx="547.3" cy="17.3" r="2.5" fill="#6B4E8A" opacity="0.60"/>
  <circle cx="571.0" cy="20.3" r="2.4" fill="#6B4E8A" opacity="0.87"/>
  <circle cx="590.0" cy="19.7" r="1.9" fill="#6B4E8A" opacity="0.71"/>
  <circle cx="630.8" cy="19.4" r="1.2" fill="#6B4E8A" opacity="0.42"/>
  <circle cx="647.5" cy="17.5" r="1.1" fill="#6B4E8A" opacity="0.42"/>
  <circle cx="671.2" cy="19.2" r="0.8" fill="#6B4E8A" opacity="0.37"/>
  <circle cx="712.4" cy="18.7" r="1.3" fill="#6B4E8A" opacity="0.43"/>
  <circle cx="751.5" cy="19.7" r="1.7" fill="#6B4E8A" opacity="0.38"/>
  <circle cx="788.3" cy="18.1" r="0.8" fill="#6B4E8A" opacity="0.23"/>
  <circle cx="850.7" cy="16.4" r="1.1" fill="#6B4E8A" opacity="0.39"/>
  <circle cx="869.8" cy="16.5" r="1.3" fill="#6B4E8A" opacity="0.40"/>
  <circle cx="891.6" cy="17.8" r="1.3" fill="#6B4E8A" opacity="0.41"/>
  <circle cx="910.2" cy="20.3" r="0.8" fill="#9B84B0" opacity="0.34"/>
  <circle cx="991.0" cy="18.6" r="0.8" fill="#9B84B0" opacity="0.36"/>
  <circle cx="1051.9" cy="20.2" r="0.8" fill="#9B84B0" opacity="0.27"/>
  <circle cx="1091.3" cy="16.6" r="1.2" fill="#9B84B0" opacity="0.37"/>
  <circle cx="1169.6" cy="17.8" r="1.1" fill="#9B84B0" opacity="0.33"/>
  <circle cx="1192.8" cy="18.9" r="1.0" fill="#9B84B0" opacity="0.29"/>
  <circle cx="1332.3" cy="17.3" r="0.8" fill="#9B84B0" opacity="0.29"/>
  <circle cx="1432.7" cy="16.7" r="0.8" fill="#9B84B0" opacity="0.01"/>
  <circle cx="8.8" cy="30.9" r="2.4" fill="#3D2560" opacity="0.81"/>
  <circle cx="31.5" cy="29.9" r="2.9" fill="#3D2560" opacity="0.71"/>
  <circle cx="47.7" cy="30.7" r="2.9" fill="#3D2560" opacity="0.66"/>
  <circle cx="69.9" cy="31.5" r="3.5" fill="#3D2560" opacity="0.81"/>
  <circle cx="88.4" cy="29.3" r="1.3" fill="#3D2560" opacity="0.76"/>
  <circle cx="112.8" cy="30.8" r="2.8" fill="#3D2560" opacity="0.64"/>
  <circle cx="130.4" cy="30.4" r="2.3" fill="#3D2560" opacity="0.67"/>
  <circle cx="152.6" cy="30.5" r="2.5" fill="#3D2560" opacity="0.61"/>
  <circle cx="167.9" cy="30.8" r="2.0" fill="#3D2560" opacity="1.00"/>
  <circle cx="191.6" cy="31.0" r="2.9" fill="#3D2560" opacity="0.66"/>
  <circle cx="212.2" cy="32.5" r="1.5" fill="#3D2560" opacity="0.62"/>
  <circle cx="231.4" cy="32.3" r="1.5" fill="#3D2560" opacity="0.57"/>
  <circle cx="247.5" cy="28.6" r="1.9" fill="#3D2560" opacity="0.67"/>
  <circle cx="268.4" cy="31.4" r="2.2" fill="#3D2560" opacity="0.60"/>
  <circle cx="330.3" cy="31.1" r="2.1" fill="#3D2560" opacity="0.59"/>
  <circle cx="348.0" cy="29.8" r="1.6" fill="#3D2560" opacity="0.44"/>
  <circle cx="371.2" cy="32.3" r="1.8" fill="#3D2560" opacity="0.59"/>
  <circle cx="387.2" cy="30.3" r="1.7" fill="#3D2560" opacity="0.56"/>
  <circle cx="410.5" cy="32.4" r="3.5" fill="#3D2560" opacity="0.86"/>
  <circle cx="427.2" cy="31.6" r="2.1" fill="#3D2560" opacity="0.76"/>
  <circle cx="450.8" cy="30.5" r="1.2" fill="#3D2560" opacity="0.57"/>
  <circle cx="471.0" cy="32.0" r="1.4" fill="#6B4E8A" opacity="0.57"/>
  <circle cx="509.7" cy="29.8" r="2.0" fill="#6B4E8A" opacity="0.93"/>
  <circle cx="550.3" cy="30.2" r="1.3" fill="#6B4E8A" opacity="0.53"/>
  <circle cx="590.3" cy="32.3" r="1.0" fill="#6B4E8A" opacity="0.39"/>
  <circle cx="608.4" cy="29.2" r="2.1" fill="#6B4E8A" opacity="0.68"/>
  <circle cx="633.0" cy="32.2" r="1.9" fill="#6B4E8A" opacity="0.52"/>
  <circle cx="710.3" cy="30.1" r="2.5" fill="#6B4E8A" opacity="0.60"/>
  <circle cx="731.7" cy="30.2" r="2.3" fill="#6B4E8A" opacity="0.55"/>
  <circle cx="830.3" cy="30.7" r="1.1" fill="#6B4E8A" opacity="0.33"/>
  <circle cx="871.7" cy="28.7" r="1.8" fill="#6B4E8A" opacity="0.52"/>
  <circle cx="930.0" cy="30.9" r="1.7" fill="#9B84B0" opacity="0.49"/>
  <circle cx="1088.9" cy="31.4" r="1.2" fill="#9B84B0" opacity="0.39"/>
  <circle cx="1107.4" cy="31.1" r="0.8" fill="#9B84B0" opacity="0.07"/>
  <circle cx="1130.8" cy="32.0" r="0.8" fill="#9B84B0" opacity="0.21"/>
  <circle cx="1169.2" cy="29.1" r="1.1" fill="#9B84B0" opacity="0.35"/>
  <circle cx="1249.8" cy="29.6" r="0.8" fill="#9B84B0" opacity="0.11"/>
  <circle cx="1289.7" cy="29.9" r="0.8" fill="#9B84B0" opacity="0.24"/>
  <circle cx="8.7" cy="44.0" r="2.7" fill="#3D2560" opacity="0.74"/>
  <circle cx="31.3" cy="43.4" r="2.8" fill="#3D2560" opacity="0.75"/>
  <circle cx="70.5" cy="43.7" r="1.4" fill="#3D2560" opacity="0.64"/>
  <circle cx="88.1" cy="41.3" r="2.2" fill="#3D2560" opacity="0.85"/>
  <circle cx="131.9" cy="42.7" r="2.7" fill="#3D2560" opacity="0.78"/>
  <circle cx="172.8" cy="44.2" r="2.8" fill="#3D2560" opacity="0.93"/>
  <circle cx="191.7" cy="40.8" r="2.5" fill="#3D2560" opacity="0.78"/>
  <circle cx="211.0" cy="43.1" r="2.6" fill="#3D2560" opacity="0.80"/>
  <circle cx="232.3" cy="43.0" r="3.1" fill="#3D2560" opacity="0.63"/>
  <circle cx="251.9" cy="44.4" r="1.8" fill="#3D2560" opacity="0.68"/>
  <circle cx="270.0" cy="41.2" r="3.3" fill="#3D2560" opacity="0.65"/>
  <circle cx="291.0" cy="43.8" r="3.4" fill="#3D2560" opacity="0.77"/>
  <circle cx="307.6" cy="42.7" r="1.8" fill="#3D2560" opacity="0.78"/>
  <circle cx="329.2" cy="42.6" r="2.4" fill="#3D2560" opacity="0.67"/>
  <circle cx="352.9" cy="42.2" r="2.1" fill="#3D2560" opacity="0.62"/>
  <circle cx="372.1" cy="42.6" r="2.4" fill="#3D2560" opacity="0.74"/>
  <circle cx="407.8" cy="43.0" r="1.1" fill="#3D2560" opacity="0.65"/>
  <circle cx="447.9" cy="44.4" r="1.1" fill="#3D2560" opacity="0.74"/>
  <circle cx="468.0" cy="43.4" r="1.1" fill="#6B4E8A" opacity="0.44"/>
  <circle cx="507.3" cy="43.7" r="1.7" fill="#6B4E8A" opacity="0.60"/>
  <circle cx="531.7" cy="42.8" r="1.2" fill="#6B4E8A" opacity="0.60"/>
  <circle cx="609.9" cy="42.4" r="1.6" fill="#6B4E8A" opacity="0.46"/>
  <circle cx="630.6" cy="41.0" r="1.2" fill="#6B4E8A" opacity="0.53"/>
  <circle cx="690.6" cy="41.2" r="2.5" fill="#6B4E8A" opacity="0.83"/>
  <circle cx="729.7" cy="41.7" r="0.8" fill="#6B4E8A" opacity="0.27"/>
  <circle cx="751.0" cy="42.3" r="0.8" fill="#6B4E8A" opacity="0.44"/>
  <circle cx="772.0" cy="41.2" r="0.8" fill="#6B4E8A" opacity="0.46"/>
  <circle cx="831.0" cy="43.8" r="1.3" fill="#6B4E8A" opacity="0.37"/>
  <circle cx="890.9" cy="41.7" r="0.8" fill="#6B4E8A" opacity="0.32"/>
  <circle cx="1049.0" cy="40.8" r="1.2" fill="#9B84B0" opacity="0.31"/>
  <circle cx="1091.5" cy="41.6" r="0.8" fill="#9B84B0" opacity="0.23"/>
  <circle cx="1150.7" cy="43.5" r="0.8" fill="#9B84B0" opacity="0.23"/>
  <circle cx="1209.6" cy="41.9" r="0.8" fill="#9B84B0" opacity="0.18"/>
  <circle cx="1267.8" cy="41.8" r="0.8" fill="#9B84B0" opacity="0.15"/>
  <circle cx="1352.2" cy="40.9" r="0.8" fill="#9B84B0" opacity="0.20"/>
  <circle cx="10.1" cy="54.6" r="2.1" fill="#3D2560" opacity="0.74"/>
  <circle cx="28.0" cy="55.0" r="1.5" fill="#3D2560" opacity="0.73"/>
  <circle cx="51.9" cy="56.3" r="1.9" fill="#3D2560" opacity="0.66"/>
  <circle cx="70.6" cy="56.0" r="2.5" fill="#3D2560" opacity="0.60"/>
  <circle cx="91.6" cy="54.8" r="3.2" fill="#3D2560" opacity="0.80"/>
  <circle cx="110.7" cy="56.5" r="2.2" fill="#3D2560" opacity="0.52"/>
  <circle cx="128.6" cy="53.2" r="2.5" fill="#3D2560" opacity="0.72"/>
  <circle cx="147.3" cy="56.3" r="1.5" fill="#3D2560" opacity="0.91"/>
  <circle cx="169.8" cy="55.2" r="3.0" fill="#3D2560" opacity="0.95"/>
  <circle cx="191.9" cy="55.6" r="1.6" fill="#3D2560" opacity="0.59"/>
  <circle cx="212.4" cy="54.4" r="2.6" fill="#3D2560" opacity="0.71"/>
  <circle cx="228.5" cy="54.8" r="2.1" fill="#3D2560" opacity="0.72"/>
  <circle cx="249.5" cy="54.4" r="2.4" fill="#3D2560" opacity="0.82"/>
  <circle cx="267.4" cy="53.4" r="2.6" fill="#3D2560" opacity="0.66"/>
  <circle cx="329.1" cy="56.9" r="2.0" fill="#3D2560" opacity="0.53"/>
  <circle cx="352.6" cy="54.2" r="2.0" fill="#3D2560" opacity="0.83"/>
  <circle cx="409.5" cy="54.4" r="1.5" fill="#3D2560" opacity="0.45"/>
  <circle cx="432.7" cy="54.9" r="1.1" fill="#3D2560" opacity="0.38"/>
  <circle cx="451.6" cy="56.3" r="3.0" fill="#3D2560" opacity="0.56"/>
  <circle cx="471.6" cy="53.5" r="1.7" fill="#6B4E8A" opacity="0.53"/>
  <circle cx="509.6" cy="54.6" r="1.4" fill="#6B4E8A" opacity="0.34"/>
  <circle cx="550.2" cy="54.2" r="2.1" fill="#6B4E8A" opacity="0.53"/>
  <circle cx="610.2" cy="56.9" r="1.6" fill="#6B4E8A" opacity="0.46"/>
  <circle cx="628.5" cy="55.6" r="2.0" fill="#6B4E8A" opacity="0.50"/>
  <circle cx="671.6" cy="54.1" r="2.3" fill="#6B4E8A" opacity="0.46"/>
  <circle cx="689.7" cy="54.4" r="0.8" fill="#6B4E8A" opacity="0.17"/>
  <circle cx="708.4" cy="57.0" r="1.4" fill="#6B4E8A" opacity="0.39"/>
  <circle cx="731.7" cy="53.6" r="1.4" fill="#6B4E8A" opacity="0.67"/>
  <circle cx="767.0" cy="53.3" r="1.2" fill="#6B4E8A" opacity="0.57"/>
  <circle cx="791.4" cy="55.1" r="1.0" fill="#6B4E8A" opacity="0.44"/>
  <circle cx="811.8" cy="54.8" r="0.8" fill="#6B4E8A" opacity="0.43"/>
  <circle cx="847.9" cy="54.7" r="1.6" fill="#6B4E8A" opacity="0.40"/>
  <circle cx="871.0" cy="53.3" r="1.5" fill="#6B4E8A" opacity="0.27"/>
  <circle cx="991.4" cy="55.5" r="1.1" fill="#9B84B0" opacity="0.32"/>
  <circle cx="1091.7" cy="54.8" r="0.8" fill="#9B84B0" opacity="0.08"/>
  <circle cx="1227.7" cy="54.5" r="1.1" fill="#9B84B0" opacity="0.30"/>
  <circle cx="7.5" cy="67.8" r="2.2" fill="#3D2560" opacity="0.92"/>
  <circle cx="30.6" cy="68.3" r="1.3" fill="#3D2560" opacity="0.54"/>
  <circle cx="70.6" cy="67.9" r="3.0" fill="#3D2560" opacity="0.66"/>
  <circle cx="90.4" cy="67.3" r="2.2" fill="#3D2560" opacity="0.86"/>
  <circle cx="110.0" cy="66.8" r="2.4" fill="#3D2560" opacity="0.66"/>
  <circle cx="129.7" cy="69.2" r="2.0" fill="#3D2560" opacity="0.95"/>
  <circle cx="172.4" cy="67.0" r="1.4" fill="#3D2560" opacity="0.78"/>
  <circle cx="187.4" cy="67.4" r="3.1" fill="#3D2560" opacity="0.88"/>
  <circle cx="212.6" cy="67.8" r="2.4" fill="#3D2560" opacity="0.63"/>
  <circle cx="231.7" cy="65.3" r="2.3" fill="#3D2560" opacity="0.68"/>
  <circle cx="250.3" cy="67.7" r="1.4" fill="#3D2560" opacity="0.65"/>
  <circle cx="271.6" cy="68.5" r="1.6" fill="#3D2560" opacity="0.99"/>
  <circle cx="289.7" cy="67.9" r="1.7" fill="#3D2560" opacity="0.77"/>
  <circle cx="312.8" cy="67.0" r="2.7" fill="#3D2560" opacity="0.52"/>
  <circle cx="327.9" cy="65.9" r="1.3" fill="#3D2560" opacity="0.54"/>
  <circle cx="368.5" cy="67.8" r="2.5" fill="#3D2560" opacity="0.64"/>
  <circle cx="388.0" cy="69.0" r="1.2" fill="#3D2560" opacity="0.60"/>
  <circle cx="410.6" cy="68.6" r="2.2" fill="#3D2560" opacity="0.81"/>
  <circle cx="430.5" cy="67.8" r="2.3" fill="#3D2560" opacity="0.58"/>
  <circle cx="450.0" cy="67.7" r="1.4" fill="#3D2560" opacity="0.70"/>
  <circle cx="487.4" cy="65.5" r="1.6" fill="#6B4E8A" opacity="0.55"/>
  <circle cx="511.3" cy="68.2" r="2.3" fill="#6B4E8A" opacity="0.70"/>
  <circle cx="529.2" cy="67.5" r="1.7" fill="#6B4E8A" opacity="0.63"/>
  <circle cx="548.7" cy="66.8" r="1.7" fill="#6B4E8A" opacity="0.44"/>
  <circle cx="588.9" cy="68.3" r="1.6" fill="#6B4E8A" opacity="0.54"/>
  <circle cx="608.9" cy="65.3" r="2.3" fill="#6B4E8A" opacity="0.55"/>
  <circle cx="627.3" cy="67.2" r="2.2" fill="#6B4E8A" opacity="0.57"/>
  <circle cx="650.2" cy="68.6" r="1.3" fill="#6B4E8A" opacity="0.52"/>
  <circle cx="669.4" cy="67.5" r="1.0" fill="#6B4E8A" opacity="0.43"/>
  <circle cx="690.0" cy="68.3" r="0.8" fill="#6B4E8A" opacity="0.34"/>
  <circle cx="731.8" cy="66.6" r="1.5" fill="#6B4E8A" opacity="0.41"/>
  <circle cx="747.3" cy="65.8" r="1.1" fill="#6B4E8A" opacity="0.43"/>
  <circle cx="770.6" cy="67.3" r="1.3" fill="#6B4E8A" opacity="0.53"/>
  <circle cx="809.0" cy="68.5" r="1.9" fill="#6B4E8A" opacity="0.68"/>
  <circle cx="831.0" cy="69.1" r="1.0" fill="#6B4E8A" opacity="0.35"/>
  <circle cx="1012.7" cy="65.7" r="0.8" fill="#9B84B0" opacity="0.19"/>
  <circle cx="1031.6" cy="68.9" r="1.3" fill="#9B84B0" opacity="0.37"/>
  <circle cx="1047.8" cy="66.1" r="0.9" fill="#9B84B0" opacity="0.39"/>
  <circle cx="1072.5" cy="66.6" r="0.8" fill="#9B84B0" opacity="0.16"/>
  <circle cx="1152.8" cy="66.4" r="0.8" fill="#9B84B0" opacity="0.16"/>
  <circle cx="7.0" cy="79.6" r="3.3" fill="#3D2560" opacity="0.75"/>
  <circle cx="52.8" cy="78.7" r="2.8" fill="#3D2560" opacity="0.96"/>
  <circle cx="70.4" cy="79.6" r="2.5" fill="#3D2560" opacity="0.84"/>
  <circle cx="88.1" cy="81.1" r="3.5" fill="#3D2560" opacity="0.76"/>
  <circle cx="112.6" cy="81.3" r="3.0" fill="#3D2560" opacity="0.85"/>
  <circle cx="132.9" cy="78.6" r="3.5" fill="#3D2560" opacity="0.82"/>
  <circle cx="152.6" cy="80.8" r="2.2" fill="#3D2560" opacity="0.62"/>
  <circle cx="168.5" cy="78.2" r="2.8" fill="#3D2560" opacity="0.87"/>
  <circle cx="191.5" cy="78.1" r="3.0" fill="#3D2560" opacity="0.89"/>
  <circle cx="211.0" cy="78.2" r="1.6" fill="#3D2560" opacity="0.68"/>
  <circle cx="228.6" cy="78.4" r="2.2" fill="#3D2560" opacity="0.71"/>
  <circle cx="250.9" cy="80.2" r="1.2" fill="#3D2560" opacity="0.50"/>
  <circle cx="269.4" cy="79.5" r="3.3" fill="#3D2560" opacity="0.88"/>
  <circle cx="310.7" cy="78.3" r="1.4" fill="#3D2560" opacity="0.56"/>
  <circle cx="330.3" cy="79.3" r="2.0" fill="#3D2560" opacity="0.68"/>
  <circle cx="348.5" cy="80.5" r="2.0" fill="#3D2560" opacity="0.38"/>
  <circle cx="370.4" cy="77.7" r="1.5" fill="#3D2560" opacity="0.47"/>
  <circle cx="387.9" cy="78.8" r="2.0" fill="#3D2560" opacity="0.52"/>
  <circle cx="410.1" cy="80.7" r="1.8" fill="#3D2560" opacity="0.62"/>
  <circle cx="427.3" cy="79.3" r="2.7" fill="#3D2560" opacity="0.77"/>
  <circle cx="467.3" cy="78.8" r="1.3" fill="#6B4E8A" opacity="0.82"/>
  <circle cx="509.5" cy="80.5" r="1.9" fill="#6B4E8A" opacity="0.64"/>
  <circle cx="552.2" cy="81.1" r="1.2" fill="#6B4E8A" opacity="0.47"/>
  <circle cx="588.1" cy="79.6" r="1.2" fill="#6B4E8A" opacity="0.43"/>
  <circle cx="608.8" cy="80.1" r="1.5" fill="#6B4E8A" opacity="0.48"/>
  <circle cx="652.6" cy="80.3" r="0.9" fill="#6B4E8A" opacity="0.53"/>
  <circle cx="671.6" cy="81.0" r="1.0" fill="#6B4E8A" opacity="0.45"/>
  <circle cx="728.4" cy="78.3" r="2.3" fill="#6B4E8A" opacity="0.44"/>
  <circle cx="748.7" cy="80.7" r="1.6" fill="#6B4E8A" opacity="0.41"/>
  <circle cx="768.8" cy="78.0" r="0.9" fill="#6B4E8A" opacity="0.23"/>
  <circle cx="787.4" cy="81.2" r="1.2" fill="#6B4E8A" opacity="0.36"/>
  <circle cx="869.5" cy="78.0" r="0.8" fill="#6B4E8A" opacity="0.32"/>
  <circle cx="968.2" cy="80.0" r="1.0" fill="#9B84B0" opacity="0.27"/>
  <circle cx="991.3" cy="78.2" r="0.8" fill="#9B84B0" opacity="0.27"/>
  <circle cx="1092.6" cy="81.3" r="0.8" fill="#9B84B0" opacity="0.12"/>
  <circle cx="1108.5" cy="79.9" r="0.9" fill="#9B84B0" opacity="0.50"/>
  <circle cx="10.3" cy="92.2" r="1.5" fill="#3D2560" opacity="0.61"/>
  <circle cx="31.6" cy="91.3" r="3.2" fill="#3D2560" opacity="0.69"/>
  <circle cx="47.1" cy="91.7" r="1.6" fill="#3D2560" opacity="0.62"/>
  <circle cx="69.9" cy="89.7" r="2.2" fill="#3D2560" opacity="0.53"/>
  <circle cx="88.6" cy="93.6" r="1.2" fill="#3D2560" opacity="0.74"/>
  <circle cx="127.6" cy="90.3" r="1.3" fill="#3D2560" opacity="0.59"/>
  <circle cx="149.2" cy="91.3" r="2.4" fill="#3D2560" opacity="0.94"/>
  <circle cx="171.1" cy="93.1" r="2.2" fill="#3D2560" opacity="0.76"/>
  <circle cx="190.3" cy="89.9" r="1.3" fill="#3D2560" opacity="0.59"/>
  <circle cx="209.6" cy="92.8" r="2.1" fill="#3D2560" opacity="0.77"/>
  <circle cx="228.3" cy="93.1" r="3.2" fill="#3D2560" opacity="0.77"/>
  <circle cx="247.4" cy="93.4" r="3.0" fill="#3D2560" opacity="0.76"/>
  <circle cx="272.8" cy="92.0" r="3.0" fill="#3D2560" opacity="0.89"/>
  <circle cx="287.5" cy="90.3" r="1.7" fill="#3D2560" opacity="0.81"/>
  <circle cx="311.5" cy="90.2" r="2.1" fill="#3D2560" opacity="0.53"/>
  <circle cx="332.8" cy="89.9" r="2.2" fill="#3D2560" opacity="0.89"/>
  <circle cx="371.6" cy="89.8" r="1.8" fill="#3D2560" opacity="0.93"/>
  <circle cx="411.1" cy="92.3" r="1.2" fill="#3D2560" opacity="0.62"/>
  <circle cx="427.9" cy="92.5" r="2.1" fill="#3D2560" opacity="0.69"/>
  <circle cx="447.6" cy="89.7" r="1.1" fill="#3D2560" opacity="0.39"/>
  <circle cx="469.7" cy="91.9" r="1.5" fill="#6B4E8A" opacity="0.42"/>
  <circle cx="487.6" cy="92.1" r="1.5" fill="#6B4E8A" opacity="0.56"/>
  <circle cx="512.4" cy="93.3" r="2.2" fill="#6B4E8A" opacity="0.52"/>
  <circle cx="529.3" cy="90.2" r="1.6" fill="#6B4E8A" opacity="0.61"/>
  <circle cx="549.9" cy="90.0" r="1.5" fill="#6B4E8A" opacity="0.53"/>
  <circle cx="570.6" cy="90.4" r="1.1" fill="#6B4E8A" opacity="0.48"/>
  <circle cx="591.8" cy="91.0" r="1.5" fill="#6B4E8A" opacity="0.66"/>
  <circle cx="632.7" cy="90.5" r="1.3" fill="#6B4E8A" opacity="0.64"/>
  <circle cx="670.5" cy="90.6" r="1.1" fill="#6B4E8A" opacity="0.47"/>
  <circle cx="687.7" cy="91.9" r="1.9" fill="#6B4E8A" opacity="0.59"/>
  <circle cx="751.2" cy="92.9" r="1.4" fill="#6B4E8A" opacity="0.36"/>
  <circle cx="951.6" cy="92.3" r="0.8" fill="#9B84B0" opacity="0.17"/>
  <circle cx="972.9" cy="92.4" r="0.8" fill="#9B84B0" opacity="0.28"/>
  <circle cx="988.6" cy="91.7" r="1.2" fill="#9B84B0" opacity="0.38"/>
  <circle cx="1067.6" cy="91.3" r="0.8" fill="#9B84B0" opacity="0.11"/>
  <circle cx="1129.9" cy="91.6" r="0.8" fill="#9B84B0" opacity="0.28"/>
  <circle cx="1172.1" cy="92.3" r="0.9" fill="#9B84B0" opacity="0.21"/>
  <circle cx="1188.0" cy="91.9" r="1.0" fill="#9B84B0" opacity="0.20"/>
  <circle cx="1250.7" cy="90.5" r="0.8" fill="#9B84B0" opacity="0.24"/>
  <circle cx="8.8" cy="102.6" r="2.9" fill="#3D2560" opacity="0.80"/>
  <circle cx="27.8" cy="103.4" r="1.8" fill="#3D2560" opacity="0.85"/>
  <circle cx="69.9" cy="102.5" r="1.6" fill="#3D2560" opacity="0.62"/>
  <circle cx="87.8" cy="105.1" r="3.4" fill="#3D2560" opacity="0.80"/>
  <circle cx="111.1" cy="103.6" r="3.1" fill="#3D2560" opacity="0.77"/>
  <circle cx="128.8" cy="103.0" r="2.4" fill="#3D2560" opacity="0.63"/>
  <circle cx="151.5" cy="105.0" r="2.4" fill="#3D2560" opacity="0.59"/>
  <circle cx="169.2" cy="105.2" r="1.5" fill="#3D2560" opacity="0.89"/>
  <circle cx="192.9" cy="102.3" r="3.1" fill="#3D2560" opacity="0.90"/>
  <circle cx="209.1" cy="105.2" r="1.7" fill="#3D2560" opacity="0.73"/>
  <circle cx="228.4" cy="105.1" r="2.6" fill="#3D2560" opacity="0.74"/>
  <circle cx="247.8" cy="102.7" r="1.5" fill="#3D2560" opacity="0.50"/>
  <circle cx="268.7" cy="104.0" r="1.4" fill="#3D2560" opacity="0.58"/>
  <circle cx="367.8" cy="105.4" r="1.9" fill="#3D2560" opacity="0.88"/>
  <circle cx="410.5" cy="103.0" r="1.7" fill="#3D2560" opacity="0.58"/>
  <circle cx="448.7" cy="105.6" r="1.6" fill="#3D2560" opacity="0.73"/>
  <circle cx="467.0" cy="105.0" r="1.9" fill="#6B4E8A" opacity="0.58"/>
  <circle cx="487.4" cy="104.0" r="0.9" fill="#6B4E8A" opacity="0.39"/>
  <circle cx="508.6" cy="105.2" r="1.5" fill="#6B4E8A" opacity="0.59"/>
  <circle cx="531.1" cy="102.1" r="0.8" fill="#6B4E8A" opacity="0.48"/>
  <circle cx="547.7" cy="105.3" r="1.3" fill="#6B4E8A" opacity="0.35"/>
  <circle cx="567.8" cy="104.5" r="1.2" fill="#6B4E8A" opacity="0.68"/>
  <circle cx="590.9" cy="102.9" r="1.3" fill="#6B4E8A" opacity="0.56"/>
  <circle cx="611.2" cy="102.8" r="1.8" fill="#6B4E8A" opacity="0.58"/>
  <circle cx="629.9" cy="102.4" r="1.3" fill="#6B4E8A" opacity="0.60"/>
  <circle cx="689.3" cy="104.8" r="0.8" fill="#6B4E8A" opacity="0.35"/>
  <circle cx="753.0" cy="102.5" r="1.7" fill="#6B4E8A" opacity="0.40"/>
  <circle cx="908.7" cy="102.2" r="1.5" fill="#9B84B0" opacity="0.50"/>
  <circle cx="1012.4" cy="105.7" r="0.8" fill="#9B84B0" opacity="0.21"/>
  <circle cx="1168.6" cy="102.0" r="0.8" fill="#9B84B0" opacity="0.20"/>
  <circle cx="8.0" cy="117.9" r="2.3" fill="#3D2560" opacity="0.86"/>
  <circle cx="31.7" cy="115.2" r="3.2" fill="#3D2560" opacity="0.88"/>
  <circle cx="51.8" cy="115.2" r="1.4" fill="#3D2560" opacity="0.80"/>
  <circle cx="69.2" cy="116.1" r="2.4" fill="#3D2560" opacity="0.68"/>
  <circle cx="87.6" cy="116.4" r="2.7" fill="#3D2560" opacity="0.64"/>
  <circle cx="108.5" cy="116.0" r="2.0" fill="#3D2560" opacity="0.59"/>
  <circle cx="151.4" cy="115.8" r="2.1" fill="#3D2560" opacity="0.77"/>
  <circle cx="168.6" cy="114.4" r="1.7" fill="#3D2560" opacity="0.62"/>
  <circle cx="192.9" cy="117.9" r="1.5" fill="#3D2560" opacity="0.74"/>
  <circle cx="212.1" cy="115.4" r="2.1" fill="#3D2560" opacity="0.50"/>
  <circle cx="230.7" cy="116.0" r="2.4" fill="#3D2560" opacity="0.72"/>
  <circle cx="248.2" cy="117.7" r="3.0" fill="#3D2560" opacity="0.69"/>
  <circle cx="269.1" cy="117.5" r="3.1" fill="#3D2560" opacity="0.93"/>
  <circle cx="290.9" cy="117.5" r="2.4" fill="#3D2560" opacity="0.52"/>
  <circle cx="307.4" cy="118.1" r="2.1" fill="#3D2560" opacity="0.45"/>
  <circle cx="349.2" cy="118.0" r="1.4" fill="#3D2560" opacity="0.57"/>
  <circle cx="371.9" cy="114.4" r="1.7" fill="#3D2560" opacity="0.52"/>
  <circle cx="388.9" cy="117.3" r="2.4" fill="#3D2560" opacity="0.74"/>
  <circle cx="408.6" cy="114.4" r="1.3" fill="#3D2560" opacity="0.65"/>
  <circle cx="429.8" cy="115.7" r="1.7" fill="#3D2560" opacity="0.65"/>
  <circle cx="448.8" cy="115.2" r="1.1" fill="#3D2560" opacity="0.44"/>
  <circle cx="492.0" cy="115.4" r="0.8" fill="#6B4E8A" opacity="0.33"/>
  <circle cx="532.9" cy="114.2" r="1.7" fill="#6B4E8A" opacity="0.60"/>
  <circle cx="551.8" cy="114.7" r="0.9" fill="#6B4E8A" opacity="0.59"/>
  <circle cx="590.8" cy="116.7" r="2.0" fill="#6B4E8A" opacity="0.53"/>
  <circle cx="647.8" cy="117.7" r="1.8" fill="#6B4E8A" opacity="0.42"/>
  <circle cx="670.4" cy="117.4" r="1.5" fill="#6B4E8A" opacity="0.42"/>
  <circle cx="708.7" cy="117.6" r="0.8" fill="#6B4E8A" opacity="0.48"/>
  <circle cx="728.8" cy="115.8" r="1.5" fill="#6B4E8A" opacity="0.37"/>
  <circle cx="752.3" cy="116.2" r="1.3" fill="#6B4E8A" opacity="0.45"/>
  <circle cx="790.3" cy="116.0" r="2.3" fill="#6B4E8A" opacity="0.55"/>
  <circle cx="808.1" cy="115.4" r="0.8" fill="#6B4E8A" opacity="0.43"/>
  <circle cx="952.1" cy="117.3" r="1.6" fill="#9B84B0" opacity="0.69"/>
  <circle cx="1109.9" cy="114.5" r="0.8" fill="#9B84B0" opacity="0.25"/>
  <circle cx="1147.8" cy="117.0" r="1.7" fill="#9B84B0" opacity="0.47"/>
  <circle cx="1268.8" cy="114.7" r="0.8" fill="#9B84B0" opacity="0.26"/>
  <circle cx="1312.8" cy="116.9" r="1.0" fill="#9B84B0" opacity="0.27"/>
  <circle cx="1450.6" cy="117.8" r="0.9" fill="#9B84B0" opacity="0.19"/>
  <circle cx="12.3" cy="126.7" r="2.9" fill="#3D2560" opacity="0.86"/>
  <circle cx="29.7" cy="127.4" r="1.9" fill="#3D2560" opacity="0.63"/>
  <circle cx="49.3" cy="129.3" r="3.3" fill="#3D2560" opacity="0.93"/>
  <circle cx="69.3" cy="128.5" r="1.6" fill="#3D2560" opacity="0.79"/>
  <circle cx="88.0" cy="126.6" r="3.2" fill="#3D2560" opacity="0.72"/>
  <circle cx="112.7" cy="126.6" r="1.4" fill="#3D2560" opacity="0.60"/>
  <circle cx="127.6" cy="128.7" r="2.4" fill="#3D2560" opacity="0.72"/>
  <circle cx="152.7" cy="127.0" r="2.5" fill="#3D2560" opacity="0.50"/>
  <circle cx="171.2" cy="129.2" r="2.8" fill="#3D2560" opacity="0.68"/>
  <circle cx="188.4" cy="126.5" r="2.4" fill="#3D2560" opacity="0.87"/>
  <circle cx="208.8" cy="129.0" r="2.5" fill="#3D2560" opacity="0.63"/>
  <circle cx="228.0" cy="127.5" r="1.5" fill="#3D2560" opacity="0.89"/>
  <circle cx="251.0" cy="126.7" r="2.0" fill="#3D2560" opacity="0.54"/>
  <circle cx="269.2" cy="128.1" r="1.8" fill="#3D2560" opacity="0.74"/>
  <circle cx="291.5" cy="129.0" r="1.3" fill="#3D2560" opacity="0.61"/>
  <circle cx="312.8" cy="128.7" r="2.3" fill="#3D2560" opacity="0.83"/>
  <circle cx="332.2" cy="128.2" r="2.7" fill="#3D2560" opacity="0.66"/>
  <circle cx="352.4" cy="129.2" r="1.6" fill="#3D2560" opacity="0.63"/>
  <circle cx="367.7" cy="129.4" r="1.4" fill="#3D2560" opacity="0.81"/>
  <circle cx="412.9" cy="128.1" r="2.6" fill="#3D2560" opacity="0.64"/>
  <circle cx="469.3" cy="127.9" r="2.0" fill="#6B4E8A" opacity="0.68"/>
  <circle cx="510.1" cy="128.0" r="1.6" fill="#6B4E8A" opacity="0.48"/>
  <circle cx="570.2" cy="127.7" r="1.3" fill="#6B4E8A" opacity="0.43"/>
  <circle cx="590.7" cy="126.5" r="1.2" fill="#6B4E8A" opacity="0.39"/>
  <circle cx="612.3" cy="127.7" r="0.9" fill="#6B4E8A" opacity="0.41"/>
  <circle cx="668.7" cy="128.3" r="1.5" fill="#6B4E8A" opacity="0.34"/>
  <circle cx="712.0" cy="127.4" r="1.1" fill="#6B4E8A" opacity="0.41"/>
  <circle cx="807.8" cy="129.7" r="1.7" fill="#6B4E8A" opacity="0.32"/>
  <circle cx="832.0" cy="129.7" r="1.0" fill="#6B4E8A" opacity="0.42"/>
  <circle cx="851.9" cy="128.4" r="1.6" fill="#6B4E8A" opacity="0.39"/>
  <circle cx="869.2" cy="128.7" r="0.8" fill="#6B4E8A" opacity="0.31"/>
  <circle cx="892.4" cy="129.3" r="0.9" fill="#6B4E8A" opacity="0.22"/>
  <circle cx="1032.5" cy="128.9" r="0.9" fill="#9B84B0" opacity="0.20"/>
  <circle cx="1252.9" cy="128.9" r="0.8" fill="#9B84B0" opacity="0.10"/>
  <circle cx="1291.6" cy="129.9" r="0.8" fill="#9B84B0" opacity="0.20"/>
  <circle cx="12.0" cy="142.1" r="1.6" fill="#3D2560" opacity="0.58"/>
  <circle cx="31.6" cy="139.3" r="2.8" fill="#3D2560" opacity="0.73"/>
  <circle cx="49.1" cy="141.5" r="2.0" fill="#3D2560" opacity="0.92"/>
  <circle cx="72.1" cy="140.4" r="2.9" fill="#3D2560" opacity="0.76"/>
  <circle cx="87.4" cy="142.1" r="2.5" fill="#3D2560" opacity="0.95"/>
  <circle cx="112.1" cy="139.1" r="1.6" fill="#3D2560" opacity="0.66"/>
  <circle cx="132.4" cy="140.4" r="2.0" fill="#3D2560" opacity="0.88"/>
  <circle cx="148.1" cy="141.1" r="1.3" fill="#3D2560" opacity="0.66"/>
  <circle cx="191.6" cy="138.9" r="2.6" fill="#3D2560" opacity="0.83"/>
  <circle cx="212.8" cy="140.1" r="1.5" fill="#3D2560" opacity="0.68"/>
  <circle cx="232.0" cy="139.3" r="2.4" fill="#3D2560" opacity="0.71"/>
  <circle cx="251.2" cy="139.9" r="1.4" fill="#3D2560" opacity="0.64"/>
  <circle cx="288.7" cy="141.5" r="2.0" fill="#3D2560" opacity="0.57"/>
  <circle cx="312.4" cy="140.0" r="1.8" fill="#3D2560" opacity="0.98"/>
  <circle cx="371.4" cy="140.9" r="1.4" fill="#3D2560" opacity="0.60"/>
  <circle cx="410.2" cy="138.7" r="2.5" fill="#3D2560" opacity="0.61"/>
  <circle cx="429.5" cy="140.1" r="1.8" fill="#3D2560" opacity="0.55"/>
  <circle cx="451.2" cy="141.1" r="1.4" fill="#3D2560" opacity="0.59"/>
  <circle cx="467.8" cy="141.9" r="1.0" fill="#6B4E8A" opacity="0.57"/>
  <circle cx="487.7" cy="139.0" r="1.1" fill="#6B4E8A" opacity="0.40"/>
  <circle cx="511.2" cy="139.7" r="1.0" fill="#6B4E8A" opacity="0.52"/>
  <circle cx="532.6" cy="139.9" r="1.1" fill="#6B4E8A" opacity="0.69"/>
  <circle cx="547.9" cy="138.9" r="2.0" fill="#6B4E8A" opacity="0.73"/>
  <circle cx="568.5" cy="139.5" r="1.7" fill="#6B4E8A" opacity="0.36"/>
  <circle cx="587.2" cy="139.7" r="1.7" fill="#6B4E8A" opacity="0.40"/>
  <circle cx="632.1" cy="141.2" r="1.3" fill="#6B4E8A" opacity="0.56"/>
  <circle cx="650.7" cy="142.1" r="1.1" fill="#6B4E8A" opacity="0.63"/>
  <circle cx="689.3" cy="142.0" r="2.0" fill="#6B4E8A" opacity="0.56"/>
  <circle cx="732.7" cy="139.2" r="1.0" fill="#6B4E8A" opacity="0.38"/>
  <circle cx="749.3" cy="140.0" r="0.8" fill="#6B4E8A" opacity="0.49"/>
  <circle cx="809.5" cy="138.7" r="0.9" fill="#6B4E8A" opacity="0.33"/>
  <circle cx="911.0" cy="139.5" r="0.8" fill="#9B84B0" opacity="0.18"/>
  <circle cx="970.9" cy="139.2" r="0.8" fill="#9B84B0" opacity="0.21"/>
  <circle cx="1012.8" cy="138.8" r="0.8" fill="#9B84B0" opacity="0.25"/>
  <circle cx="1090.0" cy="141.2" r="0.8" fill="#9B84B0" opacity="0.26"/>
  <circle cx="1110.6" cy="141.0" r="0.8" fill="#9B84B0" opacity="0.20"/>
  <circle cx="1131.0" cy="142.4" r="0.8" fill="#9B84B0" opacity="0.15"/>
  <circle cx="1211.6" cy="139.4" r="0.8" fill="#9B84B0" opacity="0.20"/>
  <circle cx="1271.3" cy="141.4" r="0.8" fill="#9B84B0" opacity="0.18"/>
  <circle cx="30.5" cy="153.7" r="1.7" fill="#3D2560" opacity="0.75"/>
  <circle cx="49.3" cy="154.7" r="2.6" fill="#3D2560" opacity="0.70"/>
  <circle cx="72.8" cy="154.7" r="1.9" fill="#3D2560" opacity="0.53"/>
  <circle cx="88.8" cy="153.6" r="2.5" fill="#3D2560" opacity="0.70"/>
  <circle cx="110.8" cy="151.6" r="2.7" fill="#3D2560" opacity="0.72"/>
  <circle cx="152.7" cy="152.8" r="2.9" fill="#3D2560" opacity="0.73"/>
  <circle cx="170.4" cy="153.4" r="2.2" fill="#3D2560" opacity="0.88"/>
  <circle cx="188.7" cy="154.2" r="3.0" fill="#3D2560" opacity="0.77"/>
  <circle cx="208.2" cy="153.8" r="1.6" fill="#3D2560" opacity="0.67"/>
  <circle cx="232.0" cy="153.5" r="1.7" fill="#3D2560" opacity="0.78"/>
  <circle cx="252.2" cy="153.7" r="3.2" fill="#3D2560" opacity="0.90"/>
  <circle cx="268.4" cy="153.9" r="2.7" fill="#3D2560" opacity="0.62"/>
  <circle cx="292.7" cy="154.7" r="1.4" fill="#3D2560" opacity="0.55"/>
  <circle cx="308.5" cy="153.3" r="1.7" fill="#3D2560" opacity="0.53"/>
  <circle cx="330.9" cy="153.8" r="2.3" fill="#3D2560" opacity="0.77"/>
  <circle cx="371.1" cy="151.5" r="1.5" fill="#3D2560" opacity="0.69"/>
  <circle cx="389.6" cy="153.0" r="1.2" fill="#3D2560" opacity="0.60"/>
  <circle cx="407.9" cy="151.4" r="1.5" fill="#3D2560" opacity="0.45"/>
  <circle cx="450.4" cy="152.2" r="1.7" fill="#3D2560" opacity="0.41"/>
  <circle cx="468.1" cy="151.1" r="1.4" fill="#6B4E8A" opacity="0.44"/>
  <circle cx="488.3" cy="152.1" r="1.3" fill="#6B4E8A" opacity="0.43"/>
  <circle cx="572.4" cy="153.2" r="2.2" fill="#6B4E8A" opacity="0.79"/>
  <circle cx="630.2" cy="151.9" r="2.7" fill="#6B4E8A" opacity="0.76"/>
  <circle cx="672.4" cy="151.5" r="1.8" fill="#6B4E8A" opacity="0.69"/>
  <circle cx="687.0" cy="151.0" r="1.9" fill="#6B4E8A" opacity="0.63"/>
  <circle cx="772.6" cy="153.8" r="1.2" fill="#6B4E8A" opacity="0.54"/>
  <circle cx="787.5" cy="151.0" r="1.4" fill="#6B4E8A" opacity="0.36"/>
  <circle cx="809.3" cy="153.3" r="0.9" fill="#6B4E8A" opacity="0.23"/>
  <circle cx="892.6" cy="151.2" r="0.8" fill="#6B4E8A" opacity="0.18"/>
  <circle cx="911.6" cy="152.5" r="0.8" fill="#9B84B0" opacity="0.26"/>
  <circle cx="929.3" cy="154.0" r="0.8" fill="#9B84B0" opacity="0.23"/>
  <circle cx="951.1" cy="154.4" r="1.2" fill="#9B84B0" opacity="0.35"/>
  <circle cx="1148.1" cy="154.0" r="1.0" fill="#9B84B0" opacity="0.28"/>
  <circle cx="1170.3" cy="151.9" r="0.9" fill="#9B84B0" opacity="0.36"/>
  <circle cx="12.2" cy="163.6" r="2.5" fill="#3D2560" opacity="0.69"/>
  <circle cx="27.1" cy="165.0" r="1.5" fill="#3D2560" opacity="0.83"/>
  <circle cx="50.5" cy="166.6" r="2.4" fill="#3D2560" opacity="0.77"/>
  <circle cx="69.2" cy="163.9" r="3.0" fill="#3D2560" opacity="0.89"/>
  <circle cx="89.8" cy="165.0" r="2.1" fill="#3D2560" opacity="0.76"/>
  <circle cx="110.7" cy="163.7" r="2.0" fill="#3D2560" opacity="0.63"/>
  <circle cx="132.7" cy="165.6" r="2.5" fill="#3D2560" opacity="0.64"/>
  <circle cx="149.9" cy="163.3" r="1.7" fill="#3D2560" opacity="0.49"/>
  <circle cx="172.4" cy="164.4" r="2.2" fill="#3D2560" opacity="0.71"/>
  <circle cx="191.2" cy="165.1" r="3.1" fill="#3D2560" opacity="0.93"/>
  <circle cx="210.3" cy="163.7" r="2.7" fill="#3D2560" opacity="0.72"/>
  <circle cx="229.3" cy="166.6" r="1.8" fill="#3D2560" opacity="0.53"/>
  <circle cx="270.0" cy="163.6" r="1.2" fill="#3D2560" opacity="0.43"/>
  <circle cx="288.3" cy="163.7" r="1.8" fill="#3D2560" opacity="0.73"/>
  <circle cx="311.3" cy="164.9" r="2.1" fill="#3D2560" opacity="0.59"/>
  <circle cx="332.0" cy="163.1" r="1.3" fill="#3D2560" opacity="0.70"/>
  <circle cx="350.4" cy="163.2" r="1.7" fill="#3D2560" opacity="0.58"/>
  <circle cx="391.3" cy="165.6" r="1.2" fill="#3D2560" opacity="0.39"/>
  <circle cx="413.0" cy="166.5" r="1.1" fill="#3D2560" opacity="0.60"/>
  <circle cx="451.0" cy="164.1" r="1.7" fill="#3D2560" opacity="0.42"/>
  <circle cx="469.3" cy="163.4" r="1.0" fill="#6B4E8A" opacity="0.51"/>
  <circle cx="489.5" cy="163.6" r="1.2" fill="#6B4E8A" opacity="0.57"/>
  <circle cx="527.7" cy="164.9" r="1.0" fill="#6B4E8A" opacity="0.53"/>
  <circle cx="590.2" cy="163.9" r="1.5" fill="#6B4E8A" opacity="0.45"/>
  <circle cx="610.5" cy="166.0" r="1.7" fill="#6B4E8A" opacity="0.51"/>
  <circle cx="628.4" cy="166.4" r="1.3" fill="#6B4E8A" opacity="0.60"/>
  <circle cx="648.1" cy="165.8" r="1.8" fill="#6B4E8A" opacity="0.50"/>
  <circle cx="710.9" cy="164.0" r="1.5" fill="#6B4E8A" opacity="0.37"/>
  <circle cx="728.7" cy="165.7" r="1.8" fill="#6B4E8A" opacity="0.47"/>
  <circle cx="750.3" cy="164.0" r="1.1" fill="#6B4E8A" opacity="0.39"/>
  <circle cx="828.3" cy="164.6" r="0.8" fill="#6B4E8A" opacity="0.22"/>
  <circle cx="887.5" cy="163.6" r="1.1" fill="#6B4E8A" opacity="0.26"/>
  <circle cx="907.2" cy="164.5" r="1.6" fill="#9B84B0" opacity="0.40"/>
  <circle cx="990.9" cy="166.2" r="0.8" fill="#9B84B0" opacity="0.16"/>
  <circle cx="1027.2" cy="164.0" r="0.8" fill="#9B84B0" opacity="0.15"/>
  <circle cx="1128.7" cy="166.3" r="0.8" fill="#9B84B0" opacity="0.16"/>
  <circle cx="1189.4" cy="163.4" r="0.8" fill="#9B84B0" opacity="0.25"/>
  <circle cx="1367.4" cy="165.5" r="0.8" fill="#9B84B0" opacity="0.10"/>
  <circle cx="1427.6" cy="165.7" r="0.8" fill="#9B84B0" opacity="0.17"/>
  <circle cx="10.0" cy="176.0" r="2.9" fill="#3D2560" opacity="0.95"/>
  <circle cx="28.2" cy="176.2" r="2.5" fill="#3D2560" opacity="0.61"/>
  <circle cx="51.0" cy="177.7" r="3.0" fill="#3D2560" opacity="0.82"/>
  <circle cx="69.9" cy="177.7" r="2.4" fill="#3D2560" opacity="0.99"/>
  <circle cx="92.9" cy="178.9" r="2.0" fill="#3D2560" opacity="0.69"/>
  <circle cx="107.3" cy="178.4" r="1.9" fill="#3D2560" opacity="0.64"/>
  <circle cx="128.0" cy="179.1" r="2.3" fill="#3D2560" opacity="0.63"/>
  <circle cx="147.1" cy="176.1" r="2.4" fill="#3D2560" opacity="0.66"/>
  <circle cx="168.4" cy="177.1" r="2.2" fill="#3D2560" opacity="0.61"/>
  <circle cx="188.3" cy="178.0" r="1.8" fill="#3D2560" opacity="0.77"/>
  <circle cx="210.5" cy="176.1" r="1.4" fill="#3D2560" opacity="0.60"/>
  <circle cx="229.6" cy="176.7" r="1.6" fill="#3D2560" opacity="0.91"/>
  <circle cx="250.0" cy="179.2" r="3.1" fill="#3D2560" opacity="0.78"/>
  <circle cx="271.7" cy="176.4" r="2.6" fill="#3D2560" opacity="0.83"/>
  <circle cx="291.9" cy="177.1" r="1.8" fill="#3D2560" opacity="0.52"/>
  <circle cx="309.2" cy="177.5" r="3.0" fill="#3D2560" opacity="0.64"/>
  <circle cx="368.0" cy="178.3" r="1.7" fill="#3D2560" opacity="0.70"/>
  <circle cx="391.4" cy="178.8" r="2.0" fill="#3D2560" opacity="0.64"/>
  <circle cx="411.8" cy="176.6" r="1.9" fill="#3D2560" opacity="0.57"/>
  <circle cx="448.9" cy="176.4" r="1.5" fill="#3D2560" opacity="0.66"/>
  <circle cx="469.7" cy="178.7" r="1.6" fill="#6B4E8A" opacity="0.60"/>
  <circle cx="487.1" cy="178.1" r="2.2" fill="#6B4E8A" opacity="0.78"/>
  <circle cx="527.4" cy="178.7" r="1.8" fill="#6B4E8A" opacity="0.43"/>
  <circle cx="551.6" cy="175.6" r="1.3" fill="#6B4E8A" opacity="0.44"/>
  <circle cx="568.5" cy="176.4" r="1.3" fill="#6B4E8A" opacity="0.31"/>
  <circle cx="629.9" cy="179.1" r="1.6" fill="#6B4E8A" opacity="0.43"/>
  <circle cx="670.6" cy="177.7" r="1.8" fill="#6B4E8A" opacity="0.55"/>
  <circle cx="689.1" cy="177.4" r="1.1" fill="#6B4E8A" opacity="0.29"/>
  <circle cx="708.6" cy="176.4" r="0.8" fill="#6B4E8A" opacity="0.46"/>
  <circle cx="727.0" cy="178.9" r="2.0" fill="#6B4E8A" opacity="0.46"/>
  <circle cx="749.6" cy="176.4" r="0.8" fill="#6B4E8A" opacity="0.25"/>
  <circle cx="788.0" cy="178.2" r="1.2" fill="#6B4E8A" opacity="0.42"/>
  <circle cx="811.6" cy="178.9" r="1.4" fill="#6B4E8A" opacity="0.39"/>
  <circle cx="831.5" cy="178.5" r="1.3" fill="#6B4E8A" opacity="0.54"/>
  <circle cx="887.1" cy="175.4" r="1.0" fill="#6B4E8A" opacity="0.26"/>
  <circle cx="908.6" cy="178.1" r="1.6" fill="#9B84B0" opacity="0.39"/>
  <circle cx="928.9" cy="178.4" r="1.6" fill="#9B84B0" opacity="0.36"/>
  <circle cx="991.7" cy="175.5" r="1.3" fill="#9B84B0" opacity="0.37"/>
  <circle cx="1031.6" cy="176.2" r="0.8" fill="#9B84B0" opacity="0.10"/>
  <circle cx="1152.6" cy="177.3" r="0.8" fill="#9B84B0" opacity="0.28"/>
  <circle cx="1187.7" cy="177.8" r="0.9" fill="#9B84B0" opacity="0.29"/>
  <circle cx="1227.3" cy="178.4" r="0.8" fill="#9B84B0" opacity="0.20"/>
  <circle cx="1270.7" cy="178.9" r="0.8" fill="#9B84B0" opacity="0.16"/>
  <circle cx="8.7" cy="190.8" r="3.3" fill="#3D2560" opacity="0.82"/>
  <circle cx="28.6" cy="188.9" r="1.4" fill="#3D2560" opacity="0.86"/>
  <circle cx="48.1" cy="187.5" r="3.2" fill="#3D2560" opacity="0.91"/>
  <circle cx="70.2" cy="189.0" r="2.4" fill="#3D2560" opacity="0.78"/>
  <circle cx="90.7" cy="188.7" r="2.7" fill="#3D2560" opacity="0.64"/>
  <circle cx="107.8" cy="190.9" r="1.6" fill="#3D2560" opacity="0.71"/>
  <circle cx="130.4" cy="190.8" r="2.5" fill="#3D2560" opacity="0.74"/>
  <circle cx="150.6" cy="187.7" r="2.9" fill="#3D2560" opacity="0.60"/>
  <circle cx="172.3" cy="187.8" r="2.5" fill="#3D2560" opacity="0.50"/>
  <circle cx="189.2" cy="190.3" r="1.9" fill="#3D2560" opacity="0.43"/>
  <circle cx="207.4" cy="188.7" r="2.6" fill="#3D2560" opacity="0.75"/>
  <circle cx="228.1" cy="189.5" r="1.9" fill="#3D2560" opacity="0.85"/>
  <circle cx="251.5" cy="189.1" r="1.5" fill="#3D2560" opacity="0.81"/>
  <circle cx="272.3" cy="188.1" r="1.3" fill="#3D2560" opacity="0.56"/>
  <circle cx="287.9" cy="191.4" r="2.1" fill="#3D2560" opacity="0.68"/>
  <circle cx="309.2" cy="190.5" r="1.5" fill="#3D2560" opacity="0.58"/>
  <circle cx="330.4" cy="188.3" r="3.0" fill="#3D2560" opacity="0.97"/>
  <circle cx="349.4" cy="190.3" r="2.6" fill="#3D2560" opacity="0.64"/>
  <circle cx="373.0" cy="188.7" r="2.0" fill="#3D2560" opacity="0.69"/>
  <circle cx="408.7" cy="189.7" r="1.8" fill="#3D2560" opacity="0.69"/>
  <circle cx="427.8" cy="188.9" r="1.9" fill="#3D2560" opacity="0.51"/>
  <circle cx="491.3" cy="190.6" r="1.3" fill="#6B4E8A" opacity="0.69"/>
  <circle cx="567.3" cy="190.5" r="1.7" fill="#6B4E8A" opacity="0.75"/>
  <circle cx="610.9" cy="189.9" r="1.0" fill="#6B4E8A" opacity="0.65"/>
  <circle cx="630.2" cy="188.0" r="1.2" fill="#6B4E8A" opacity="0.35"/>
  <circle cx="651.4" cy="189.0" r="1.5" fill="#6B4E8A" opacity="0.53"/>
  <circle cx="669.4" cy="188.0" r="0.8" fill="#6B4E8A" opacity="0.39"/>
  <circle cx="689.4" cy="187.8" r="1.3" fill="#6B4E8A" opacity="0.49"/>
  <circle cx="709.9" cy="190.1" r="1.0" fill="#6B4E8A" opacity="0.48"/>
  <circle cx="772.5" cy="187.8" r="1.5" fill="#6B4E8A" opacity="0.41"/>
  <circle cx="808.8" cy="191.4" r="1.5" fill="#6B4E8A" opacity="0.54"/>
  <circle cx="831.9" cy="188.2" r="0.8" fill="#6B4E8A" opacity="0.35"/>
  <circle cx="911.2" cy="187.9" r="1.3" fill="#9B84B0" opacity="0.33"/>
  <circle cx="930.2" cy="188.3" r="0.8" fill="#9B84B0" opacity="0.15"/>
  <circle cx="951.2" cy="187.5" r="0.8" fill="#9B84B0" opacity="0.15"/>
  <circle cx="968.0" cy="188.6" r="1.1" fill="#9B84B0" opacity="0.32"/>
  <circle cx="989.3" cy="188.5" r="1.6" fill="#9B84B0" opacity="0.43"/>
  <circle cx="1049.3" cy="191.4" r="0.8" fill="#9B84B0" opacity="0.24"/>
  <circle cx="1070.0" cy="189.3" r="1.3" fill="#9B84B0" opacity="0.23"/>
  <circle cx="1129.1" cy="188.9" r="0.8" fill="#9B84B0" opacity="0.16"/>
  <circle cx="1370.3" cy="188.3" r="0.8" fill="#9B84B0" opacity="0.28"/>
  <circle cx="8.9" cy="203.2" r="2.1" fill="#3D2560" opacity="0.66"/>
  <circle cx="29.5" cy="201.3" r="2.1" fill="#3D2560" opacity="0.86"/>
  <circle cx="51.7" cy="200.1" r="1.8" fill="#3D2560" opacity="0.90"/>
  <circle cx="68.6" cy="201.9" r="1.5" fill="#3D2560" opacity="0.55"/>
  <circle cx="89.9" cy="201.7" r="2.4" fill="#3D2560" opacity="0.80"/>
  <circle cx="112.1" cy="201.6" r="1.4" fill="#3D2560" opacity="0.56"/>
  <circle cx="128.6" cy="201.3" r="3.0" fill="#3D2560" opacity="1.00"/>
  <circle cx="147.4" cy="203.4" r="3.3" fill="#3D2560" opacity="0.90"/>
  <circle cx="168.5" cy="201.3" r="1.2" fill="#3D2560" opacity="0.70"/>
  <circle cx="188.9" cy="202.1" r="2.6" fill="#3D2560" opacity="0.74"/>
  <circle cx="229.7" cy="203.0" r="1.2" fill="#3D2560" opacity="0.81"/>
  <circle cx="270.1" cy="202.2" r="1.2" fill="#3D2560" opacity="0.58"/>
  <circle cx="309.5" cy="202.1" r="1.3" fill="#3D2560" opacity="0.69"/>
  <circle cx="331.3" cy="200.1" r="2.8" fill="#3D2560" opacity="0.90"/>
  <circle cx="347.8" cy="201.3" r="2.2" fill="#3D2560" opacity="0.64"/>
  <circle cx="369.7" cy="200.7" r="1.7" fill="#3D2560" opacity="0.57"/>
  <circle cx="409.7" cy="201.1" r="1.8" fill="#3D2560" opacity="0.54"/>
  <circle cx="449.3" cy="202.7" r="1.4" fill="#3D2560" opacity="0.34"/>
  <circle cx="467.9" cy="203.1" r="1.2" fill="#6B4E8A" opacity="0.59"/>
  <circle cx="510.8" cy="200.1" r="1.2" fill="#6B4E8A" opacity="0.49"/>
  <circle cx="532.1" cy="201.8" r="0.8" fill="#6B4E8A" opacity="0.56"/>
  <circle cx="550.5" cy="201.6" r="1.3" fill="#6B4E8A" opacity="0.36"/>
  <circle cx="570.7" cy="201.9" r="1.7" fill="#6B4E8A" opacity="0.34"/>
  <circle cx="590.9" cy="199.8" r="1.8" fill="#6B4E8A" opacity="0.48"/>
  <circle cx="629.5" cy="200.4" r="1.4" fill="#6B4E8A" opacity="0.42"/>
  <circle cx="669.7" cy="202.0" r="1.4" fill="#6B4E8A" opacity="0.26"/>
  <circle cx="687.4" cy="201.4" r="1.3" fill="#6B4E8A" opacity="0.36"/>
  <circle cx="711.2" cy="200.8" r="1.6" fill="#6B4E8A" opacity="0.52"/>
  <circle cx="731.4" cy="202.2" r="1.6" fill="#6B4E8A" opacity="0.36"/>
  <circle cx="770.7" cy="200.9" r="2.0" fill="#6B4E8A" opacity="0.81"/>
  <circle cx="810.8" cy="201.6" r="1.0" fill="#6B4E8A" opacity="0.48"/>
  <circle cx="850.8" cy="200.1" r="1.4" fill="#6B4E8A" opacity="0.40"/>
  <circle cx="931.7" cy="200.9" r="1.1" fill="#9B84B0" opacity="0.33"/>
  <circle cx="951.1" cy="201.0" r="1.1" fill="#9B84B0" opacity="0.31"/>
  <circle cx="969.0" cy="202.4" r="1.4" fill="#9B84B0" opacity="0.39"/>
  <circle cx="7.9" cy="215.4" r="2.8" fill="#3D2560" opacity="0.89"/>
  <circle cx="29.8" cy="214.7" r="2.4" fill="#3D2560" opacity="0.58"/>
  <circle cx="69.8" cy="212.1" r="2.2" fill="#3D2560" opacity="0.77"/>
  <circle cx="90.5" cy="213.1" r="2.6" fill="#3D2560" opacity="0.58"/>
  <circle cx="109.6" cy="212.4" r="1.7" fill="#3D2560" opacity="0.69"/>
  <circle cx="130.7" cy="213.9" r="1.8" fill="#3D2560" opacity="0.74"/>
  <circle cx="148.7" cy="212.9" r="1.4" fill="#3D2560" opacity="0.74"/>
  <circle cx="169.7" cy="212.4" r="2.3" fill="#3D2560" opacity="0.83"/>
  <circle cx="188.1" cy="214.3" r="2.4" fill="#3D2560" opacity="0.85"/>
  <circle cx="210.7" cy="213.1" r="2.8" fill="#3D2560" opacity="0.79"/>
  <circle cx="329.8" cy="212.8" r="1.5" fill="#3D2560" opacity="0.76"/>
  <circle cx="351.2" cy="214.5" r="1.8" fill="#3D2560" opacity="0.55"/>
  <circle cx="367.2" cy="213.8" r="1.2" fill="#3D2560" opacity="0.45"/>
  <circle cx="387.8" cy="212.3" r="2.6" fill="#3D2560" opacity="0.77"/>
  <circle cx="410.9" cy="215.1" r="2.3" fill="#3D2560" opacity="0.69"/>
  <circle cx="432.8" cy="213.4" r="1.2" fill="#3D2560" opacity="0.53"/>
  <circle cx="451.7" cy="213.6" r="2.4" fill="#3D2560" opacity="0.65"/>
  <circle cx="472.6" cy="214.2" r="1.7" fill="#6B4E8A" opacity="0.59"/>
  <circle cx="490.3" cy="215.2" r="1.5" fill="#6B4E8A" opacity="0.84"/>
  <circle cx="571.9" cy="215.4" r="2.4" fill="#6B4E8A" opacity="0.61"/>
  <circle cx="590.2" cy="213.4" r="1.8" fill="#6B4E8A" opacity="0.46"/>
  <circle cx="652.7" cy="213.6" r="2.5" fill="#6B4E8A" opacity="0.52"/>
  <circle cx="687.8" cy="213.1" r="1.2" fill="#6B4E8A" opacity="0.45"/>
  <circle cx="732.2" cy="215.4" r="1.1" fill="#6B4E8A" opacity="0.51"/>
  <circle cx="749.3" cy="214.1" r="1.2" fill="#6B4E8A" opacity="0.33"/>
  <circle cx="769.3" cy="215.6" r="1.7" fill="#6B4E8A" opacity="0.36"/>
  <circle cx="787.4" cy="212.0" r="1.9" fill="#6B4E8A" opacity="0.52"/>
  <circle cx="812.9" cy="212.2" r="1.3" fill="#6B4E8A" opacity="0.35"/>
  <circle cx="848.1" cy="213.9" r="1.3" fill="#6B4E8A" opacity="0.38"/>
  <circle cx="1072.3" cy="212.2" r="0.8" fill="#9B84B0" opacity="0.28"/>
  <circle cx="1127.3" cy="213.3" r="1.0" fill="#9B84B0" opacity="0.25"/>
  <circle cx="1187.2" cy="215.6" r="1.2" fill="#9B84B0" opacity="0.37"/>
  <circle cx="1227.3" cy="215.9" r="0.9" fill="#9B84B0" opacity="0.26"/>
  <circle cx="1327.7" cy="212.6" r="0.8" fill="#9B84B0" opacity="0.12"/>
</svg>