<svg xmlns="http://www.w3.org/2000/svg" width="1218" height="170" viewBox="0 0 1218 170">
  <rect x="40" y="30" width="14" height="14" fill="#3D2560" opacity="0.97" rx="1.5"/>
  <rect x="56" y="30" width="14" height="14" fill="#3D2560" opacity="0.84" rx="1.5"/>
  <rect x="72" y="30" width="14" height="14" fill="#3D2560" opacity="0.99" rx="1.5"/>
  <rect x="88" y="30" width="14" height="14" fill="#3D2560" opacity="0.86" rx="1.5"/>
  <rect x="40" y="46" width="14" height="14" fill="#3D2560" opacity="0.92" rx="1.5"/>
  <rect x="104" y="46" width="14" height="14" fill="#3D2560" opacity="0.84" rx="1.5"/>
  <rect x="40" y="62" width="14" height="14" fill="#3D2560" opacity="0.98" rx="1.5"/>
  <rect x="104" y="62" width="14" height="14" fill="#3D2560" opacity="0.95" rx="1.5"/>
  <rect x="40" y="78" width="14" height="14" fill="#3D2560" opacity="0.92" rx="1.5"/>
  <rect x="56" y="78" width="14" height="14" fill="#3D2560" opacity="0.82" rx="1.5"/>
  <rect x="72" y="78" width="14" height="14" fill="#3D2560" opacity="0.83" rx="1.5"/>
  <rect x="88" y="78" width="14" height="14" fill="#3D2560" opacity="0.92" rx="1.5"/>
  <rect x="40" y="94" width="14" height="14" fill="#3D2560" opacity="0.90" rx="1.5"/>
  <rect x="40" y="110" width="14" height="14" fill="#3D2560" opacity="0.91" rx="1.5"/>
  <rect x="40" y="126" width="14" height="14" fill="#3D2560" opacity="0.88" rx="1.5"/>
  <rect x="124" y="30" width="14" height="14" fill="#3D2560" opacity="0.85" rx="1.5"/>
  <rect x="140" y="30" width="14" height="14" fill="#3D2560" opacity="0.92" rx="1.5"/>
  <rect x="156" y="30" width="14" height="14" fill="#3D2560" opacity="0.85" rx="1.5"/>
  <rect x="172" y="30" width="14" height="14" fill="#3D2560" opacity="1.00" rx="1.5"/>
  <rect x="124" y="46" width="14" height="14" fill="#3D2560" opacity="0.99" rx="1.5"/>
  <rect x="188" y="46" width="14" height="14" fill="#3D2560" opacity="0.86" rx="1.5"/>
  <rect x="124" y="62" width="14" height="14" fill="#3D2560" opacity="0.91" rx="1.5"/>
  <rect x="188" y="62" width="14" height="14" fill="#3D2560" opacity="0.99" rx="1.5"/>
  <rect x="124" y="78" width="14" height="14" fill="#3D2560" opacity="0.91" rx="1.5"/>
  <rect x="140" y="78" width="14" height="14" fill="#3D2560" opacity="0.88" rx="1.5"/>
  <rect x="156" y="78" width="14" height="14" fill="#3D2560" opacity="0.89" rx="1.5"/>
  <rect x="172" y="78" width="14" height="14" fill="#3D2560" opacity="0.91" rx="1.5"/>
  <rect x="124" y="94" width="14" height="14" fill="#3D2560" opacity="0.96" rx="1.5"/>
  <rect x="156" y="94" width="14" height="14" fill="#3D2560" opacity="0.92" rx="1.5"/>
  <rect x="124" y="110" width="14" height="14" fill="#3D2560" opacity="0.97" rx="1.5"/>
  <rect x="172" y="110" width="14" height="14" fill="#3D2560" opacity="1.00" rx="1.5"/>
  <rect x="124" y="126" width="14" height="14" fill="#3D2560" opacity="0.84" rx="1.5"/>
  <rect x="188" y="126" width="14" height="14" fill="#3D2560" opacity="0.84" rx="1.5"/>
  <rect x="224" y="30" width="14" height="14" fill="#3D2560" opacity="0.83" rx="1.5"/>
  <rect x="240" y="30" width="14" height="14" fill="#3D2560" opacity="0.96" rx="1.5"/>
  <rect x="256" y="30" width="14" height="14" fill="#3D2560" opacity="0.84" rx="1.5"/>
  <rect x="208" y="46" width="14" height="14" fill="#3D2560" opacity="0.89" rx="1.5"/>
  <rect x="272" y="46" width="14" height="14" fill="#6B4E8A" opacity="0.91" rx="1.5"/>
  <rect x="208" y="62" width="14" height="14" fill="#3D2560" opacity="0.95" rx="1.5"/>
  <rect x="272" y="62" width="14" height="14" fill="#6B4E8A" opacity="0.83" rx="1.5"/>
  <rect x="208" y="78" width="14" height="14" fill="#3D2560" opacity="0.95" rx="1.5"/>
  <rect x="224" y="78" width="14" height="14" fill="#3D2560" opacity="0.97" rx="1.5"/>
  <rect x="240" y="78" width="14" height="14" fill="#3D2560" opacity="0.87" rx="1.5"/>
  <rect x="256" y="78" width="14" height="14" fill="#3D2560" opacity="0.94" rx="1.5"/>
  <rect x="272" y="78" width="14" height="14" fill="#6B4E8A" opacity="0.88" rx="1.5"/>
  <rect x="208" y="94" width="14" height="14" fill="#3D2560" opacity="0.98" rx="1.5"/>
  <rect x="272" y="94" width="14" height="14" fill="#6B4E8A" opacity="0.99" rx="1.5"/>
  <rect x="208" y="110" width="14" height="14" fill="#3D2560" opacity="0.89" rx="1.5"/>
  <rect x="272" y="110" width="14" height="14" fill="#6B4E8A" opacity="0.89" rx="1.5"/>
  <rect x="208" y="126" width="14" height="14" fill="#3D2560" opacity="0.86" rx="1.5"/>
  <rect x="272" y="126" width="14" height="14" fill="#6B4E8A" opacity="0.93" rx="1.5"/>
  <rect x="292" y="30" width="14" height="14" fill="#6B4E8A" opacity="0.93" rx="1.5"/>
  <rect x="356" y="30" width="14" height="14" fill="#6B4E8A" opacity="0.84" rx="1.5"/>
  <rect x="292" y="46" width="14" height="14" fill="#6B4E8A" opacity="0.92" rx="1.5"/>
  <rect x="308" y="46" width="14" height="14" fill="#6B4E8A" opacity="0.97" rx="1.5"/>
  <rect x="356" y="46" width="14" height="14" fill="#6B4E8A" opacity="0.86" rx="1.5"/>
  <rect x="292" y="62" width="14" height="14" fill="#6B4E8A" opacity="0.90" rx="1.5"/>
  <rect x="324" y="62" width="14" height="14" fill="#6B4E8A" opacity="0.98" rx="1.5"/>
  <rect x="356" y="62" width="14" height="14" fill="#6B4E8A" opacity="0.93" rx="1.5"/>
  <rect x="292" y="78" width="14" height="14" fill="#6B4E8A" opacity="0.99" rx="1.5"/>
  <rect x="340" y="78" width="14" height="14" fill="#6B4E8A" opacity="0.92" rx="1.5"/>
  <rect x="356" y="78" width="14" height="14" fill="#6B4E8A" opacity="0.99" rx="1.5"/>
  <rect x="292" y="94" width="14" height="14" fill="#6B4E8A" opacity="0.89" rx="1.5"/>
  <rect x="356" y="94" width="14" height="14" fill="#6B4E8A" opacity="0.89" rx="1.5"/>
  <rect x="292" y="110" width="14" height="14" fill="#6B4E8A" opacity="0.98" rx="1.5"/>
  <rect x="356" y="110" width="14" height="14" fill="#6B4E8A" opacity="0.86" rx="1.5"/>
  <rect x="292" y="126" width="14" height="14" fill="#6B4E8A" opacity="0.99" rx="1.5"/>
  <rect x="356" y="126" width="14" height="14" fill="#6B4E8A" opacity="0.96" rx="1.5"/>
  <rect x="408" y="30" width="14" height="14" fill="#6B4E8A" opacity="0.97" rx="1.5"/>
  <rect x="424" y="30" width="14" height="14" fill="#6B4E8A" opacity="0.86" rx="1.5"/>
  <rect x="440" y="30" width="14" height="14" fill="#6B4E8A" opacity="0.84" rx="1.5"/>
  <rect x="424" y="46" width="14" height="14" fill="#6B4E8A" opacity="0.97" rx="1.5"/>
  <rect x="424" y="62" width="14" height="14" fill="#6B4E8A" opacity="0.88" rx="1.5"/>
  <rect x="424" y="78" width="14" height="14" fill="#6B4E8A" opacity="0.86" rx="1.5"/>
  <rect x="424" y="94" width="14" height="14" fill="#6B4E8A" opacity="0.96" rx="1.5"/>
  <rect x="376" y="110" width="14" height="14" fill="#6B4E8A" opacity="0.84" rx="1.5"/>
  <rect x="424" y="110" width="14" height="14" fill="#6B4E8A" opacity="0.86" rx="1.5"/>
  <rect x="392" y="126" width="14" height="14" fill="#6B4E8A" opacity="0.95" rx="1.5"/>
  <rect x="408" y="126" width="14" height="14" fill="#6B4E8A" opacity="0.93" rx="1.5"/>
  <rect x="476" y="30" width="14" height="14" fill="#9B84B0" opacity="0.94" rx="1.5"/>
  <rect x="492" y="30" width="14" height="14" fill="#9B84B0" opacity="0.91" rx="1.5"/>
  <rect x="508" y="30" width="14" height="14" fill="#9B84B0" opacity="0.85" rx="1.5"/>
  <rect x="460" y="46" width="14" height="14" fill="#6B4E8A" opacity="0.94" rx="1.5"/>
  <rect x="524" y="46" width="14" height="14" fill="#9B84B0" opacity="0.88" rx="1.5"/>
  <rect x="460" y="62" width="14" height="14" fill="#6B4E8A" opacity="1.00" rx="1.5"/>
  <rect x="524" y="62" width="14" height="14" fill="#9B84B0" opacity="0.86" rx="1.5"/>
  <rect x="460" y="78" width="14" height="14" fill="#6B4E8A" opacity="0.98" rx="1.5"/>
  <rect x="476" y="78" width="14" height="14" fill="#9B84B0" opacity="0.98" rx="1.5"/>
  <rect x="492" y="78" width="14" height="14" fill="#9B84B0" opacity="0.86" rx="1.5"/>
  <rect x="508" y="78" width="14" height="14" fill="#9B84B0" opacity="0.89" rx="1.5"/>
  <rect x="524" y="78" width="14" height="14" fill="#9B84B0" opacity="0.90" rx="1.5"/>
  <rect x="460" y="94" width="14" height="14" fill="#6B4E8A" opacity="0.93" rx="1.5"/>
  <rect x="524" y="94" width="14" height="14" fill="#9B84B0" opacity="0.94" rx="1.5"/>
  <rect x="460" y="110" width="14" height="14" fill="#6B4E8A" opacity="0.97" rx="1.5"/>
  <rect x="524" y="110" width="14" height="14" fill="#9B84B0" opacity="0.91" rx="1.5"/>
  <rect x="460" y="126" width="14" height="14" fill="#6B4E8A" opacity="0.96" rx="1.5"/>
  <rect x="524" y="126" width="14" height="14" fill="#9B84B0" opacity="0.99" rx="1.5"/>
  <rect x="544" y="30" width="14" height="14" fill="#9B84B0" opacity="0.99" rx="1.5"/>
  <rect x="544" y="46" width="14" height="14" fill="#9B84B0" opacity="0.90" rx="1.5"/>
  <rect x="544" y="62" width="14" height="14" fill="#9B84B0" opacity="0.86" rx="1.5"/>
  <rect x="544" y="78" width="14" height="14" fill="#9B84B0" opacity="1.00" rx="1.5"/>
  <rect x="544" y="94" width="14" height="14" fill="#9B84B0" opacity="0.82" rx="1.5"/>
  <rect x="544" y="110" width="14" height="14" fill="#9B84B0" opacity="0.88" rx="1.5"/>
  <rect x="544" y="126" width="14" height="14" fill="#9B84B0" opacity="0.82" rx="1.5"/>
  <rect x="560" y="126" width="14" height="14" fill="#9B84B0" opacity="0.99" rx="1.5"/>
  <rect x="576" y="126" width="14" height="14" fill="#9B84B0" opacity="0.93" rx="1.5"/>
  <rect x="592" y="126" width="14" height="14" fill="#9B84B0" opacity="0.98" rx="1.5"/>
  <rect x="608" y="126" width="14" height="14" fill="#9B84B0" opacity="0.96" rx="1.5"/>
  <rect x="696" y="30" width="14" height="14" fill="#C4A35A" opacity="0.84" rx="1.5"/>
  <rect x="712" y="30" width="14" height="14" fill="#C4A35A" opacity="0.92" rx="1.5"/>
  <rect x="728" y="30" width="14" height="14" fill="#C4A35A" opacity="0.84" rx="1.5"/>
  <rect x="744" y="30" width="14" height="14" fill="#C4A35A" opacity="0.91" rx="1.5"/>
  <rect x="680" y="46" width="14" height="14" fill="#C4A35A" opacity="0.95" rx="1.5"/>
  <rect x="680" y="62" width="14" height="14" fill="#C4A35A" opacity="0.86" rx="1.5"/>
  <rect x="696" y="78" width="14" height="14" fill="#C4A35A" opacity="0.85" rx="1.5"/>
  <rect x="712" y="78" width="14" height="14" fill="#C4A35A" opacity="0.95" rx="1.5"/>
  <rect x="728" y="78" width="14" height="14" fill="#C4A35A" opacity="0.92" rx="1.5"/>
  <rect x="744" y="94" width="14" height="14" fill="#C4A35A" opacity="0.94" rx="1.5"/>
  <rect x="744" y="110" width="14" height="14" fill="#C4A35A" opacity="0.98" rx="1.5"/>
  <rect x="680" y="126" width="14" height="14" fill="#C4A35A" opacity="0.84" rx="1.5"/>
  <rect x="696" y="126" width="14" height="14" fill="#C4A35A" opacity="0.97" rx="1.5"/>
  <rect x="712" y="126" width="14" height="14" fill="#C4A35A" opacity="0.92" rx="1.5"/>
  <rect x="728" y="126" width="14" height="14" fill="#C4A35A" opacity="0.92" rx="1.5"/>
  <rect x="764" y="30" width="14" height="14" fill="#C4A35A" opacity="0.99" rx="1.5"/>
  <rect x="828" y="30" width="14" height="14" fill="#C4A35A" opacity="0.95" rx="1.5"/>
  <rect x="764" y="46" width="14" height="14" fill="#C4A35A" opacity="0.93" rx="1.5"/>
  <rect x="828" y="46" width="14" height="14" fill="#C4A35A" opacity="0.83" rx="1.5"/>
  <rect x="764" y="62" width="14" height="14" fill="#C4A35A" opacity="0.93" rx="1.5"/>
  <rect x="828" y="62" width="14" height="14" fill="#C4A35A" opacity="0.92" rx="1.5"/>
  <rect x="764" y="78" width="14" height="14" fill="#C4A35A" opacity="0.99" rx="1.5"/>
  <rect x="828" y="78" width="14" height="14" fill="#C4A35A" opacity="0.90" rx="1.5"/>
  <rect x="764" y="94" width="14" height="14" fill="#C4A35A" opacity="0.88" rx="1.5"/>
  <rect x="828" y="94" width="14" height="14" fill="#C4A35A" opacity="0.82" rx="1.5"/>
  <rect x="764" y="110" width="14" height="14" fill="#C4A35A" opacity="0.86" rx="1.5"/>
  <rect x="828" y="110" width="14" height="14" fill="#C4A35A" opacity="0.85" rx="1.5"/>
  <rect x="780" y="126" width="14" height="14" fill="#C4A35A" opacity="0.94" rx="1.5"/>
  <rect x="796" y="126" width="14" height="14" fill="#C4A35A" opacity="0.87" rx="1.5"/>
  <rect x="812" y="126" width="14" height="14" fill="#C4A35A" opacity="1.00" rx="1.5"/>
  <rect x="848" y="30" width="14" height="14" fill="#9B84B0" opacity="0.96" rx="1.5"/>
  <rect x="864" y="30" width="14" height="14" fill="#9B84B0" opacity="0.96" rx="1.5"/>
  <rect x="880" y="30" width="14" height="14" fill="#9B84B0" opacity="0.91" rx="1.5"/>
  <rect x="896" y="30" width="14" height="14" fill="#9B84B0" opacity="0.91" rx="1.5"/>
  <rect x="912" y="30" width="14" height="14" fill="#9B84B0" opacity="0.90" rx="1.5"/>
  <rect x="880" y="46" width="14" height="14" fill="#9B84B0" opacity="0.88" rx="1.5"/>
  <rect x="880" y="62" width="14" height="14" fill="#9B84B0" opacity="0.84" rx="1.5"/>
  <rect x="880" y="78" width="14" height="14" fill="#9B84B0" opacity="0.89" rx="1.5"/>
  <rect x="880" y="94" width="14" height="14" fill="#9B84B0" opacity="0.86" rx="1.5"/>
  <rect x="880" y="110" width="14" height="14" fill="#9B84B0" opacity="0.99" rx="1.5"/>
  <rect x="880" y="126" width="14" height="14" fill="#9B84B0" opacity="0.84" rx="1.5"/>
  <rect x="932" y="30" width="14" height="14" fill="#9B84B0" opacity="1.00" rx="1.5"/>
  <rect x="996" y="30" width="14" height="14" fill="#9B84B0" opacity="0.87" rx="1.5"/>
  <rect x="932" y="46" width="14" height="14" fill="#9B84B0" opacity="0.91" rx="1.5"/>
  <rect x="996" y="46" width="14" height="14" fill="#9B84B0" opacity="0.92" rx="1.5"/>
  <rect x="932" y="62" width="14" height="14" fill="#9B84B0" opacity="0.93" rx="1.5"/>
  <rect x="996" y="62" width="14" height="14" fill="#9B84B0" opacity="0.98" rx="1.5"/>
  <rect x="932" y="78" width="14" height="14" fill="#9B84B0" opacity="0.92" rx="1.5"/>
  <rect x="948" y="78" width="14" height="14" fill="#9B84B0" opacity="0.99" rx="1.5"/>
  <rect x="964" y="78" width="14" height="14" fill="#9B84B0" opacity="0.92" rx="1.5"/>
  <rect x="980" y="78" width="14" height="14" fill="#9B84B0" opacity="0.89" rx="1.5"/>
  <rect x="996" y="78" width="14" height="14" fill="#9B84B0" opacity="1.00" rx="1.5"/>
  <rect x="932" y="94" width="14" height="14" fill="#9B84B0" opacity="0.99" rx="1.5"/>
  <rect x="996" y="94" width="14" height="14" fill="#9B84B0" opacity="0.91" rx="1.5"/>
  <rect x="932" y="110" width="14" height="14" fill="#9B84B0" opacity="0.84" rx="1.5"/>
  <rect x="996" y="110" width="14" height="14" fill="#9B84B0" opacity="0.99" rx="1.5"/>
  <rect x="932" y="126" width="14" height="14" fill="#9B84B0" opacity="0.90" rx="1.5"/>
  <rect x="996" y="126" width="14" height="14" fill="#9B84B0" opacity="0.85" rx="1.5"/>
  <rect x="1032" y="30" width="14" height="14" fill="#C8BFB0" opacity="0.85" rx="1.5"/>
  <rect x="1048" y="30" width="14" height="14" fill="#C8BFB0" opacity="0.88" rx="1.5"/>
  <rect x="1064" y="30" width="14" height="14" fill="#C8BFB0" opacity="0.97" rx="1.5"/>
  <rect x="1016" y="46" width="14" height="14" fill="#C8BFB0" opacity="0.83" rx="1.5"/>
  <rect x="1080" y="46" width="14" height="14" fill="#C8BFB0" opacity="1.00" rx="1.5"/>
  <rect x="1016" y="62" width="14" height="14" fill="#C8BFB0" opacity="0.87" rx="1.5"/>
  <rect x="1080" y="62" width="14" height="14" fill="#C8BFB0" opacity="0.84" rx="1.5"/>
  <rect x="1016" y="78" width="14" height="14" fill="#C8BFB0" opacity="0.92" rx="1.5"/>
  <rect x="1032" y="78" width="14" height="14" fill="#C8BFB0" opacity="0.89" rx="1.5"/>
  <rect x="1048" y="78" width="14" height="14" fill="#C8BFB0" opacity="0.92" rx="1.5"/>
  <rect x="1064" y="78" width="14" height="14" fill="#C8BFB0" opacity="0.88" rx="1.5"/>
  <rect x="1080" y="78" width="14" height="14" fill="#C8BFB0" opacity="0.99" rx="1.5"/>
  <rect x="1016" y="94" width="14" height="14" fill="#C8BFB0" opacity="0.94" rx="1.5"/>
  <rect x="1080" y="94" width="14" height="14" fill="#C8BFB0" opacity="0.87" rx="1.5"/>
  <rect x="1016" y="110" width="14" height="14" fill="#C8BFB0" opacity="0.85" rx="1.5"/>
  <rect x="1080" y="110" width="14" height="14" fill="#C8BFB0" opacity="0.90" rx="1.5"/>
  <rect x="1016" y="126" width="14" height="14" fill="#C8BFB0" opacity="0.84" rx="1.5"/>
  <rect x="1080" y="126" width="14" height="14" fill="#C8BFB0" opacity="0.84" rx="1.5"/>
  <rect x="1100" y="30" width="14" height="14" fill="#C8BFB0" opacity="0.88" rx="1.5"/>
  <rect x="1116" y="30" width="14" height="14" fill="#C8BFB0" opacity="0.97" rx="1.5"/>
  <rect x="1132" y="30" width="14" height="14" fill="#C8BFB0" opacity="0.97" rx="1.5"/>
  <rect x="1148" y="30" width="14" height="14" fill="#C8BFB0" opacity="0.89" rx="1.5"/>
  <rect x="1100" y="46" width="14" height="14" fill="#C8BFB0" opacity="0.99" rx="1.5"/>
  <rect x="1164" y="46" width="14" height="14" fill="#C8BFB0" opacity="0.89" rx="1.5"/>
  <rect x="1100" y="62" width="14" height="14" fill="#C8BFB0" opacity="0.85" rx="1.5"/>
  <rect x="1164" y="62" width="14" height="14" fill="#C8BFB0" opacity="0.90" rx="1.5"/>
  <rect x="1100" y="78" width="14" height="14" fill="#C8BFB0" opacity="0.88" rx="1.5"/>
  <rect x="1116" y="78" width="14" height="14" fill="#C8BFB0" opacity="0.92" rx="1.5"/>
  <rect x="1132" y="78" width="14" height="14" fill="#C8BFB0" opacity="0.83" rx="1.5"/>
  <rect x="1148" y="78" width="14" height="14" fill="#C8BFB0" opacity="0.91" rx="1.5"/>
  <rect x="1100" y="94" width="14" height="14" fill="#C8BFB0" opacity="0.88" rx="1.5"/>
  <rect x="1132" y="94" width="14" height="14" fill="#C8BFB0" opacity="0.97" rx="1.5"/>
  <rect x="1100" y="110" width="14" height="14" fill="#C8BFB0" opacity="0.91" rx="1.5"/>
  <rect x="1148" y="110" width="14" height="14" fill="#C8BFB0" opacity="0.86" rx="1.5"/>
  <rect x="1100" y="126" width="14" height="14" fill="#C8BFB0" opacity="0.96" rx="1.5"/>
  <rect x="1164" y="126" width="14" height="14" fill="#C8BFB0" opacity="0.96" rx="1.5"/>
</svg>